<svg width="1393" height="1946" viewBox="0 0 1393 1946" fill="none" xmlns="http://www.w3.org/2000/svg">
<g filter="url(#filter0_d_2007_22)">
<path d="M709.5 23.1V314.6M709.5 983.6V760.1M709.5 983.6V1119.1M709.5 983.6H881L1076 1178.6V1364.6M709.5 314.6H978.5L1129.5 163.6M709.5 314.6L413.319 485.6M709.5 314.6V536.6M709.5 536.6L618.5 627.6H453L298 782.6M709.5 536.6V760.1M709.5 536.6H843.5L917.229 610.329M298 782.6V451.1M298 782.6H120V922.6M120 922.6H-21M120 922.6V1178.6M120 1178.6L33.5 1265.1M120 1178.6C136.5 1178.6 170 1178.6 172 1178.6C174 1178.6 205.167 1146.27 220.5 1130.1M709.5 760.1H492.5V1005.6M709.5 760.1H850.229L990.958 922.6M709.5 1119.1L618.5 1210.1M709.5 1119.1C709.5 1143.9 709.5 1845.1 709.5 1916.6M709.5 1119.1C709.5 1125.63 833.5 1245.82 895.5 1305.1M709.5 1119.1L492.5 1005.6M990.958 922.6H1115M990.958 922.6V1081.6M990.958 1145.1V1081.6M990.958 1081.6H1159M1076 1364.6H1308.5M1076 1364.6V1467.1M492.5 1005.6H345M345 1005.6L220.5 1130.1M345 1005.6H244L209.5 971.1M220.5 1130.1V1291.6M220.5 1291.6L147.5 1364.6M220.5 1291.6L298 1369.1M298 1369.1V1467.1M298 1369.1H384M990.958 1238.1V684.058L917.229 610.329M917.229 610.329H990.958M990.958 610.329L1215.5 808.1M990.958 610.329H1318.5M1215.5 808.1L1281.5 874.1V938.1V989.6M1215.5 808.1V866.6M1215.5 808.1H1159M1159 808.1L1127.5 839.6M1159 808.1H1091M1318.5 610.329V567.6H1352M1318.5 610.329V693.1L1361.5 736.1" stroke="#ED0048" stroke-width="5"/>
</g>
<defs>
<filter id="filter0_d_2007_22" x="-44.1" y="-2.47955e-05" width="1436.47" height="1945.7" filterUnits="userSpaceOnUse" color-interpolation-filters="sRGB">
<feFlood flood-opacity="0" result="BackgroundImageFix"/>
<feColorMatrix in="SourceAlpha" type="matrix" values="0 0 0 0 0 0 0 0 0 0 0 0 0 0 0 0 0 0 127 0" result="hardAlpha"/>
<feOffset dx="3" dy="3"/>
<feGaussianBlur stdDeviation="13.05"/>
<feColorMatrix type="matrix" values="0 0 0 0 0 0 0 0 0 0.941176 0 0 0 0 1 0 0 0 1 0"/>
<feBlend mode="normal" in2="BackgroundImageFix" result="effect1_dropShadow_2007_22"/>
<feBlend mode="normal" in="SourceGraphic" in2="effect1_dropShadow_2007_22" result="shape"/>
</filter>
</defs>
</svg>
