<svg width="1405" height="1510" viewBox="0 0 1405 1510" fill="none" xmlns="http://www.w3.org/2000/svg">
<g filter="url(#filter0_d_2007_22)">
<path d="M979.5 314.6V317.1H980.536L981.268 316.368L979.5 314.6ZM1117.17 163.6C1117.17 170.964 1123.14 176.933 1130.5 176.933C1137.86 176.933 1143.83 170.964 1143.83 163.6C1143.83 156.236 1137.86 150.267 1130.5 150.267C1123.14 150.267 1117.17 156.236 1117.17 163.6ZM400.986 485.6C400.986 492.964 406.956 498.933 414.319 498.933C421.683 498.933 427.653 492.964 427.653 485.6C427.653 478.236 421.683 472.267 414.319 472.267C406.956 472.267 400.986 478.236 400.986 485.6ZM619.5 627.6V630.1H620.536L621.268 629.368L619.5 627.6ZM454 627.6V625.1H452.964L452.232 625.832L454 627.6ZM299 782.6V785.1H300.036L300.768 784.368L299 782.6ZM285.667 451.1C285.667 458.464 291.636 464.433 299 464.433C306.364 464.433 312.333 458.464 312.333 451.1C312.333 443.736 306.364 437.767 299 437.767C291.636 437.767 285.667 443.736 285.667 451.1ZM121 782.6V780.1H118.5V782.6H121ZM-33.3333 922.6C-33.3333 929.964 -27.3638 935.933 -20 935.933C-12.6362 935.933 -6.66667 929.964 -6.66667 922.6C-6.66667 915.236 -12.6362 909.267 -20 909.267C-27.3638 909.267 -33.3333 915.236 -33.3333 922.6ZM21.1667 1265.1C21.1667 1272.46 27.1362 1278.43 34.5 1278.43C41.8638 1278.43 47.8333 1272.46 47.8333 1265.1C47.8333 1257.74 41.8638 1251.77 34.5 1251.77C27.1362 1251.77 21.1667 1257.74 21.1667 1265.1ZM606.167 1210.1C606.167 1217.46 612.136 1223.43 619.5 1223.43C626.864 1223.43 632.833 1217.46 632.833 1210.1C632.833 1202.74 626.864 1196.77 619.5 1196.77C612.136 1196.77 606.167 1202.74 606.167 1210.1ZM883.167 1305.1C883.167 1312.46 889.136 1318.43 896.5 1318.43C903.864 1318.43 909.833 1312.46 909.833 1305.1C909.833 1297.74 903.864 1291.77 896.5 1291.77C889.136 1291.77 883.167 1297.74 883.167 1305.1ZM1102.67 922.6C1102.67 929.964 1108.64 935.933 1116 935.933C1123.36 935.933 1129.33 929.964 1129.33 922.6C1129.33 915.236 1123.36 909.267 1116 909.267C1108.64 909.267 1102.67 915.236 1102.67 922.6ZM978.625 1145.1C978.625 1152.46 984.594 1158.43 991.958 1158.43C999.322 1158.43 1005.29 1152.46 1005.29 1145.1C1005.29 1137.74 999.322 1131.77 991.958 1131.77C984.594 1131.77 978.625 1137.74 978.625 1145.1ZM1146.67 1081.6C1146.67 1088.96 1152.64 1094.93 1160 1094.93C1167.36 1094.93 1173.33 1088.96 1173.33 1081.6C1173.33 1074.24 1167.36 1068.27 1160 1068.27C1152.64 1068.27 1146.67 1074.24 1146.67 1081.6ZM882 983.6L883.768 981.832L883.036 981.1H882V983.6ZM1077 1178.6H1079.5V1177.56L1078.77 1176.83L1077 1178.6ZM1296.17 1364.6C1296.17 1371.96 1302.14 1377.93 1309.5 1377.93C1316.86 1377.93 1322.83 1371.96 1322.83 1364.6C1322.83 1357.24 1316.86 1351.27 1309.5 1351.27C1302.14 1351.27 1296.17 1357.24 1296.17 1364.6ZM1063.67 1467.1C1063.67 1474.46 1069.64 1480.43 1077 1480.43C1084.36 1480.43 1090.33 1474.46 1090.33 1467.1C1090.33 1459.74 1084.36 1453.77 1077 1453.77C1069.64 1453.77 1063.67 1459.74 1063.67 1467.1ZM493.5 760.1V757.6H491V760.1H493.5ZM221.5 1130.1L219.732 1128.33L219.709 1128.36L219.686 1128.38L221.5 1130.1ZM135.167 1364.6C135.167 1371.96 141.136 1377.93 148.5 1377.93C155.864 1377.93 161.833 1371.96 161.833 1364.6C161.833 1357.24 155.864 1351.27 148.5 1351.27C141.136 1351.27 135.167 1357.24 135.167 1364.6ZM285.667 1467.1C285.667 1474.46 291.636 1480.43 299 1480.43C306.364 1480.43 312.333 1474.46 312.333 1467.1C312.333 1459.74 306.364 1453.77 299 1453.77C291.636 1453.77 285.667 1459.74 285.667 1467.1ZM371.667 1369.1C371.667 1376.46 377.636 1382.43 385 1382.43C392.364 1382.43 398.333 1376.46 398.333 1369.1C398.333 1361.74 392.364 1355.77 385 1355.77C377.636 1355.77 371.667 1361.74 371.667 1369.1ZM245 1005.6L243.232 1007.37L243.964 1008.1H245V1005.6ZM197.167 971.1C197.167 978.464 203.136 984.433 210.5 984.433C217.864 984.433 223.833 978.464 223.833 971.1C223.833 963.736 217.864 957.767 210.5 957.767C203.136 957.767 197.167 963.736 197.167 971.1ZM844.5 536.6L846.268 534.832L845.536 534.1H844.5V536.6ZM991.958 684.058H994.458V683.023L993.726 682.29L991.958 684.058ZM978.625 1238.1C978.625 1245.46 984.594 1251.43 991.958 1251.43C999.322 1251.43 1005.29 1245.46 1005.29 1238.1C1005.29 1230.74 999.322 1224.77 991.958 1224.77C984.594 1224.77 978.625 1230.74 978.625 1238.1ZM1216.5 808.1L1218.27 806.332L1218.21 806.276L1218.15 806.224L1216.5 808.1ZM1282.5 874.1H1285V873.064L1284.27 872.332L1282.5 874.1ZM1216.5 881.034L1230.93 866.6L1216.5 852.166L1202.07 866.6L1216.5 881.034ZM1269.17 989.6C1269.17 996.964 1275.14 1002.93 1282.5 1002.93C1289.86 1002.93 1295.83 996.964 1295.83 989.6C1295.83 982.236 1289.86 976.267 1282.5 976.267C1275.14 976.267 1269.17 982.236 1269.17 989.6ZM1118.29 849.806H1138.71V829.394H1118.29V849.806ZM1077.57 808.1L1092 822.534L1106.43 808.1L1092 793.666L1077.57 808.1ZM1319.5 567.6V565.1H1317V567.6H1319.5ZM1319.5 693.1H1317V694.135L1317.73 694.868L1319.5 693.1ZM1339.67 567.6C1339.67 574.964 1345.64 580.933 1353 580.933C1360.36 580.933 1366.33 574.964 1366.33 567.6C1366.33 560.236 1360.36 554.267 1353 554.267C1345.64 554.267 1339.67 560.236 1339.67 567.6ZM1349.17 736.1C1349.17 743.464 1355.14 749.433 1362.5 749.433C1369.86 749.433 1375.83 743.464 1375.83 736.1C1375.83 728.736 1369.86 722.767 1362.5 722.767C1355.14 722.767 1349.17 728.736 1349.17 736.1ZM851.229 760.1L853.119 758.463L852.371 757.6H851.229V760.1ZM710.5 23.1H708V314.6H710.5H713V23.1H710.5ZM710.5 314.6V317.1H979.5V314.6V312.1H710.5V314.6ZM979.5 314.6L981.268 316.368L1132.27 165.368L1130.5 163.6L1128.73 161.832L977.732 312.832L979.5 314.6ZM710.5 314.6L709.25 312.435L413.069 483.435L414.319 485.6L415.569 487.765L711.75 316.765L710.5 314.6ZM710.5 314.6H708V536.6H710.5H713V314.6H710.5ZM710.5 536.6L708.732 534.832L617.732 625.832L619.5 627.6L621.268 629.368L712.268 538.368L710.5 536.6ZM619.5 627.6V625.1H454V627.6V630.1H619.5V627.6ZM454 627.6L452.232 625.832L297.232 780.832L299 782.6L300.768 784.368L455.768 629.368L454 627.6ZM299 782.6H301.5V451.1H299H296.5V782.6H299ZM299 782.6V780.1H121V782.6V785.1H299V782.6ZM121 782.6H118.5V922.6H121H123.5V782.6H121ZM121 922.6V920.1H-20V922.6V925.1H121V922.6ZM121 922.6H118.5V1178.6H121H123.5V922.6H121ZM121 1178.6L119.232 1176.83L32.7322 1263.33L34.5 1265.1L36.2678 1266.87L122.768 1180.37L121 1178.6ZM710.5 536.6H708V760.1H710.5H713V536.6H710.5ZM710.5 760.1H708V983.6H710.5H713V760.1H710.5ZM710.5 983.6H708V1119.1H710.5H713V983.6H710.5ZM710.5 1119.1L708.732 1117.33L617.732 1208.33L619.5 1210.1L621.268 1211.87L712.268 1120.87L710.5 1119.1ZM710.5 1119.1H708C708 1119.15 708 1119.2 708 1119.25C708 1119.3 708 1119.35 708 1119.4C708 1119.45 708 1119.5 708 1119.55C708 1119.6 708 1119.65 708 1119.7C708 1119.76 708 1119.81 708 1119.86C708 1119.92 708 1119.97 708 1120.02C708 1120.08 708 1120.13 708 1120.19C708 1120.24 708 1120.3 708 1120.35C708 1120.41 708 1120.47 708 1120.52C708 1120.58 708 1120.64 708 1120.69C708 1120.75 708 1120.81 708 1120.87C708 1120.93 708 1120.99 708 1121.05C708 1121.11 708 1121.17 708 1121.23C708 1121.29 708 1121.35 708 1121.41C708 1121.47 708 1121.53 708 1121.59C708 1121.66 708 1121.72 708 1121.78C708 1121.85 708 1121.91 708 1121.97C708 1122.04 708 1122.1 708 1122.17C708 1122.23 708 1122.3 708 1122.36C708 1122.43 708 1122.5 708 1122.56C708 1122.63 708 1122.7 708 1122.77C708 1122.83 708 1122.9 708 1122.97C708 1123.04 708 1123.11 708 1123.18C708 1123.25 708 1123.32 708 1123.39C708 1123.46 708 1123.53 708 1123.6C708 1123.67 708 1123.74 708 1123.81C708 1123.89 708 1123.96 708 1124.03C708 1124.1 708 1124.18 708 1124.25C708 1124.33 708 1124.4 708 1124.47C708 1124.55 708 1124.62 708 1124.7C708 1124.78 708 1124.85 708 1124.93C708 1125 708 1125.08 708 1125.16C708 1125.24 708 1125.31 708 1125.39C708 1125.47 708 1125.55 708 1125.63C708 1125.71 708 1125.79 708 1125.87C708 1125.95 708 1126.03 708 1126.11C708 1126.19 708 1126.27 708 1126.35C708 1126.43 708 1126.51 708 1126.59C708 1126.68 708 1126.76 708 1126.84C708 1126.93 708 1127.01 708 1127.09C708 1127.18 708 1127.26 708 1127.35C708 1127.43 708 1127.52 708 1127.6C708 1127.69 708 1127.77 708 1127.86C708 1127.95 708 1128.03 708 1128.12C708 1128.21 708 1128.3 708 1128.38C708 1128.47 708 1128.56 708 1128.65C708 1128.74 708 1128.83 708 1128.92C708 1129.01 708 1129.1 708 1129.19C708 1129.28 708 1129.37 708 1129.46C708 1129.55 708 1129.64 708 1129.74C708 1129.83 708 1129.92 708 1130.01C708 1130.11 708 1130.2 708 1130.29C708 1130.39 708 1130.48 708 1130.58C708 1130.67 708 1130.77 708 1130.86C708 1130.96 708 1131.05 708 1131.15C708 1131.24 708 1131.34 708 1131.44C708 1131.53 708 1131.63 708 1131.73C708 1131.83 708 1131.93 708 1132.02C708 1132.12 708 1132.22 708 1132.32C708 1132.42 708 1132.52 708 1132.62C708 1132.72 708 1132.82 708 1132.92C708 1133.02 708 1133.12 708 1133.22C708 1133.32 708 1133.43 708 1133.53C708 1133.63 708 1133.73 708 1133.84C708 1133.94 708 1134.04 708 1134.15C708 1134.25 708 1134.35 708 1134.46C708 1134.56 708 1134.67 708 1134.77C708 1134.88 708 1134.98 708 1135.09C708 1135.2 708 1135.3 708 1135.41C708 1135.52 708 1135.62 708 1135.73C708 1135.84 708 1135.95 708 1136.05C708 1136.16 708 1136.27 708 1136.38C708 1136.49 708 1136.6 708 1136.71C708 1136.82 708 1136.93 708 1137.04C708 1137.15 708 1137.26 708 1137.37C708 1137.48 708 1137.59 708 1137.71C708 1137.82 708 1137.93 708 1138.04C708 1138.16 708 1138.27 708 1138.38C708 1138.49 708 1138.61 708 1138.72C708 1138.84 708 1138.95 708 1139.07C708 1139.18 708 1139.3 708 1139.41C708 1139.53 708 1139.64 708 1139.76C708 1139.87 708 1139.99 708 1140.11C708 1140.22 708 1140.34 708 1140.46C708 1140.58 708 1140.69 708 1140.81C708 1140.93 708 1141.05 708 1141.17C708 1141.29 708 1141.41 708 1141.53C708 1141.65 708 1141.77 708 1141.89C708 1142.01 708 1142.13 708 1142.25C708 1142.37 708 1142.49 708 1142.61C708 1142.73 708 1142.86 708 1142.98C708 1143.1 708 1143.22 708 1143.35C708 1143.47 708 1143.59 708 1143.72C708 1143.84 708 1143.96 708 1144.09C708 1144.21 708 1144.34 708 1144.46C708 1144.59 708 1144.71 708 1144.84C708 1144.96 708 1145.09 708 1145.22C708 1145.34 708 1145.47 708 1145.6C708 1145.72 708 1145.85 708 1145.98C708 1146.11 708 1146.23 708 1146.36C708 1146.49 708 1146.62 708 1146.75C708 1146.88 708 1147.01 708 1147.14C708 1147.27 708 1147.4 708 1147.53C708 1147.66 708 1147.79 708 1147.92C708 1148.05 708 1148.18 708 1148.31C708 1148.44 708 1148.57 708 1148.71C708 1148.84 708 1148.97 708 1149.1C708 1149.24 708 1149.37 708 1149.5C708 1149.64 708 1149.77 708 1149.9C708 1150.04 708 1150.17 708 1150.31C708 1150.44 708 1150.58 708 1150.71C708 1150.85 708 1150.98 708 1151.12C708 1151.25 708 1151.39 708 1151.53C708 1151.66 708 1151.8 708 1151.94C708 1152.07 708 1152.21 708 1152.35C708 1152.49 708 1152.62 708 1152.76C708 1152.9 708 1153.04 708 1153.18C708 1153.32 708 1153.46 708 1153.6C708 1153.74 708 1153.87 708 1154.01C708 1154.16 708 1154.3 708 1154.44C708 1154.58 708 1154.72 708 1154.86C708 1155 708 1155.14 708 1155.28C708 1155.43 708 1155.57 708 1155.71C708 1155.85 708 1155.99 708 1156.14C708 1156.28 708 1156.42 708 1156.57C708 1156.71 708 1156.85 708 1157C708 1157.14 708 1157.29 708 1157.43C708 1157.58 708 1157.72 708 1157.87C708 1158.01 708 1158.16 708 1158.3C708 1158.45 708 1158.6 708 1158.74C708 1158.89 708 1159.04 708 1159.18C708 1159.33 708 1159.48 708 1159.62C708 1159.77 708 1159.92 708 1160.07C708 1160.21 708 1160.36 708 1160.51C708 1160.66 708 1160.81 708 1160.96C708 1161.11 708 1161.26 708 1161.41C708 1161.56 708 1161.71 708 1161.86C708 1162.01 708 1162.16 708 1162.31C708 1162.46 708 1162.61 708 1162.76C708 1162.91 708 1163.06 708 1163.22C708 1163.37 708 1163.52 708 1163.67C708 1163.82 708 1163.98 708 1164.13C708 1164.28 708 1164.44 708 1164.59C708 1164.74 708 1164.9 708 1165.05C708 1165.2 708 1165.36 708 1165.51C708 1165.67 708 1165.82 708 1165.98C708 1166.13 708 1166.29 708 1166.44C708 1166.6 708 1166.75 708 1166.91C708 1167.06 708 1167.22 708 1167.38C708 1167.53 708 1167.69 708 1167.85C708 1168 708 1168.16 708 1168.32C708 1168.48 708 1168.63 708 1168.79C708 1168.95 708 1169.11 708 1169.27C708 1169.42 708 1169.58 708 1169.74C708 1169.9 708 1170.06 708 1170.22C708 1170.38 708 1170.54 708 1170.7C708 1170.86 708 1171.02 708 1171.18C708 1171.34 708 1171.5 708 1171.66C708 1171.82 708 1171.98 708 1172.14C708 1172.3 708 1172.47 708 1172.63C708 1172.79 708 1172.95 708 1173.11C708 1173.28 708 1173.44 708 1173.6C708 1173.76 708 1173.93 708 1174.09C708 1174.25 708 1174.42 708 1174.58C708 1174.74 708 1174.91 708 1175.07C708 1175.24 708 1175.4 708 1175.56C708 1175.73 708 1175.89 708 1176.06C708 1176.22 708 1176.39 708 1176.55C708 1176.72 708 1176.88 708 1177.05C708 1177.22 708 1177.38 708 1177.55C708 1177.71 708 1177.88 708 1178.05C708 1178.21 708 1178.38 708 1178.55C708 1178.72 708 1178.88 708 1179.05C708 1179.22 708 1179.39 708 1179.55C708 1179.72 708 1179.89 708 1180.06C708 1180.23 708 1180.4 708 1180.56C708 1180.73 708 1180.9 708 1181.07C708 1181.24 708 1181.41 708 1181.58C708 1181.75 708 1181.92 708 1182.09C708 1182.26 708 1182.43 708 1182.6C708 1182.77 708 1182.94 708 1183.11C708 1183.28 708 1183.45 708 1183.63C708 1183.8 708 1183.97 708 1184.14C708 1184.31 708 1184.48 708 1184.66C708 1184.83 708 1185 708 1185.17C708 1185.35 708 1185.52 708 1185.69C708 1185.86 708 1186.04 708 1186.21C708 1186.38 708 1186.56 708 1186.73C708 1186.9 708 1187.08 708 1187.25C708 1187.43 708 1187.6 708 1187.77C708 1187.95 708 1188.12 708 1188.3C708 1188.47 708 1188.65 708 1188.82C708 1189 708 1189.17 708 1189.35C708 1189.53 708 1189.7 708 1189.88C708 1190.05 708 1190.23 708 1190.41C708 1190.58 708 1190.76 708 1190.93C708 1191.11 708 1191.29 708 1191.46C708 1191.64 708 1191.82 708 1192C708 1192.17 708 1192.35 708 1192.53C708 1192.71 708 1192.88 708 1193.06C708 1193.24 708 1193.42 708 1193.6C708 1193.78 708 1193.95 708 1194.13C708 1194.31 708 1194.49 708 1194.67C708 1194.85 708 1195.03 708 1195.21C708 1195.39 708 1195.57 708 1195.75C708 1195.93 708 1196.1 708 1196.29C708 1196.47 708 1196.65 708 1196.83C708 1197.01 708 1197.19 708 1197.37C708 1197.55 708 1197.73 708 1197.91C708 1198.09 708 1198.27 708 1198.45C708 1198.63 708 1198.82 708 1199C708 1199.18 708 1199.36 708 1199.54C708 1199.73 708 1199.91 708 1200.09C708 1200.27 708 1200.45 708 1200.64C708 1200.82 708 1201 708 1201.19C708 1201.37 708 1201.55 708 1201.73C708 1201.92 708 1202.1 708 1202.28C708 1202.47 708 1202.65 708 1202.84C708 1203.02 708 1203.2 708 1203.39C708 1203.57 708 1203.76 708 1203.94C708 1204.12 708 1204.31 708 1204.49C708 1204.68 708 1204.86 708 1205.05C708 1205.23 708 1205.42 708 1205.6C708 1205.79 708 1205.97 708 1206.16C708 1206.34 708 1206.53 708 1206.72C708 1206.9 708 1207.09 708 1207.27C708 1207.46 708 1207.65 708 1207.83C708 1208.02 708 1208.2 708 1208.39C708 1208.58 708 1208.76 708 1208.95C708 1209.14 708 1209.32 708 1209.51C708 1209.7 708 1209.89 708 1210.07C708 1210.26 708 1210.45 708 1210.64C708 1210.82 708 1211.01 708 1211.2C708 1211.39 708 1211.57 708 1211.76C708 1211.95 708 1212.14 708 1212.33C708 1212.52 708 1212.7 708 1212.89C708 1213.08 708 1213.27 708 1213.46C708 1213.65 708 1213.84 708 1214.03C708 1214.21 708 1214.4 708 1214.59C708 1214.78 708 1214.97 708 1215.16C708 1215.35 708 1215.54 708 1215.73C708 1215.92 708 1216.11 708 1216.3C708 1216.49 708 1216.68 708 1216.87C708 1217.06 708 1217.25 708 1217.44C708 1217.63 708 1217.82 708 1218.01C708 1218.2 708 1218.39 708 1218.58C708 1218.77 708 1218.97 708 1219.16C708 1219.35 708 1219.54 708 1219.73C708 1219.92 708 1220.11 708 1220.3C708 1220.5 708 1220.69 708 1220.88C708 1221.07 708 1221.26 708 1221.45C708 1221.65 708 1221.84 708 1222.03C708 1222.22 708 1222.41 708 1222.61C708 1222.8 708 1222.99 708 1223.18C708 1223.37 708 1223.57 708 1223.76C708 1223.95 708 1224.14 708 1224.34C708 1224.53 708 1224.72 708 1224.92C708 1225.11 708 1225.3 708 1225.49C708 1225.69 708 1225.88 708 1226.07C708 1226.27 708 1226.46 708 1226.65C708 1226.85 708 1227.04 708 1227.23C708 1227.43 708 1227.62 708 1227.82C708 1228.01 708 1228.2 708 1228.4C708 1228.59 708 1228.79 708 1228.98C708 1229.17 708 1229.37 708 1229.56C708 1229.76 708 1229.95 708 1230.14C708 1230.34 708 1230.53 708 1230.73C708 1230.92 708 1231.12 708 1231.31C708 1231.51 708 1231.7 708 1231.9C708 1232.09 708 1232.29 708 1232.48C708 1232.68 708 1232.87 708 1233.07C708 1233.26 708 1233.46 708 1233.65C708 1233.85 708 1234.04 708 1234.24C708 1234.43 708 1234.63 708 1234.82C708 1235.02 708 1235.21 708 1235.41C708 1235.6 708 1235.8 708 1236C708 1236.19 708 1236.39 708 1236.58C708 1236.78 708 1236.97 708 1237.17C708 1237.37 708 1237.56 708 1237.76C708 1237.95 708 1238.15 708 1238.35C708 1238.54 708 1238.74 708 1238.94C708 1239.13 708 1239.33 708 1239.52C708 1239.72 708 1239.92 708 1240.11C708 1240.31 708 1240.51 708 1240.7C708 1240.9 708 1241.1 708 1241.29C708 1241.49 708 1241.69 708 1241.88C708 1242.08 708 1242.28 708 1242.47C708 1242.67 708 1242.87 708 1243.06C708 1243.26 708 1243.46 708 1243.65C708 1243.85 708 1244.05 708 1244.25C708 1244.44 708 1244.64 708 1244.84C708 1245.03 708 1245.23 708 1245.43C708 1245.62 708 1245.82 708 1246.02C708 1246.22 708 1246.41 708 1246.61C708 1246.81 708 1247.01 708 1247.2C708 1247.4 708 1247.6 708 1247.8C708 1247.99 708 1248.19 708 1248.39C708 1248.59 708 1248.78 708 1248.98C708 1249.18 708 1249.38 708 1249.57C708 1249.77 708 1249.97 708 1250.17C708 1250.36 708 1250.56 708 1250.76C708 1250.96 708 1251.15 708 1251.35C708 1251.55 708 1251.75 708 1251.95C708 1252.14 708 1252.34 708 1252.54C708 1252.74 708 1252.93 708 1253.13C708 1253.33 708 1253.53 708 1253.73C708 1253.92 708 1254.12 708 1254.32C708 1254.52 708 1254.72 708 1254.91C708 1255.11 708 1255.31 708 1255.51C708 1255.71 708 1255.9 708 1256.1C708 1256.3 708 1256.5 708 1256.69C708 1256.89 708 1257.09 708 1257.29C708 1257.49 708 1257.68 708 1257.88C708 1258.08 708 1258.28 708 1258.48C708 1258.67 708 1258.87 708 1259.07C708 1259.27 708 1259.47 708 1259.66C708 1259.86 708 1260.06 708 1260.26C708 1260.46 708 1260.65 708 1260.85C708 1261.05 708 1261.25 708 1261.45C708 1261.64 708 1261.84 708 1262.04C708 1262.24 708 1262.44 708 1262.63C708 1262.83 708 1263.03 708 1263.23C708 1263.43 708 1263.62 708 1263.82C708 1264.02 708 1264.22 708 1264.42C708 1264.61 708 1264.81 708 1265.01C708 1265.21 708 1265.4 708 1265.6C708 1265.8 708 1266 708 1266.2C708 1266.39 708 1266.59 708 1266.79C708 1266.99 708 1267.18 708 1267.38C708 1267.58 708 1267.78 708 1267.98C708 1268.17 708 1268.37 708 1268.57C708 1268.77 708 1268.96 708 1269.16C708 1269.36 708 1269.56 708 1269.75C708 1269.95 708 1270.15 708 1270.35C708 1270.54 708 1270.74 708 1270.94C708 1271.14 708 1271.33 708 1271.53C708 1271.73 708 1271.93 708 1272.12C708 1272.32 708 1272.52 708 1272.71C708 1272.91 708 1273.11 708 1273.31C708 1273.5 708 1273.7 708 1273.9C708 1274.09 708 1274.29 708 1274.49C708 1274.69 708 1274.88 708 1275.08C708 1275.28 708 1275.47 708 1275.67C708 1275.87 708 1276.06 708 1276.26C708 1276.46 708 1276.65 708 1276.85C708 1277.05 708 1277.24 708 1277.44C708 1277.64 708 1277.83 708 1278.03C708 1278.23 708 1278.42 708 1278.62C708 1278.82 708 1279.01 708 1279.21C708 1279.4 708 1279.6 708 1279.8C708 1279.99 708 1280.19 708 1280.38C708 1280.58 708 1280.78 708 1280.97C708 1281.17 708 1281.36 708 1281.56C708 1281.76 708 1281.95 708 1282.15C708 1282.34 708 1282.54 708 1282.73C708 1282.93 708 1283.13 708 1283.32C708 1283.52 708 1283.71 708 1283.91C708 1284.1 708 1284.3 708 1284.49C708 1284.69 708 1284.88 708 1285.08C708 1285.27 708 1285.47 708 1285.66C708 1285.86 708 1286.05 708 1286.25C708 1286.44 708 1286.64 708 1286.83C708 1287.03 708 1287.22 708 1287.42C708 1287.61 708 1287.81 708 1288C708 1288.19 708 1288.39 708 1288.58C708 1288.78 708 1288.97 708 1289.17C708 1289.36 708 1289.55 708 1289.75C708 1289.94 708 1290.14 708 1290.33C708 1290.52 708 1290.72 708 1290.91C708 1291.1 708 1291.3 708 1291.49C708 1291.68 708 1291.88 708 1292.07C708 1292.26 708 1292.46 708 1292.65C708 1292.84 708 1293.04 708 1293.23C708 1293.42 708 1293.62 708 1293.81C708 1294 708 1294.19 708 1294.39C708 1294.58 708 1294.77 708 1294.96C708 1295.16 708 1295.35 708 1295.54C708 1295.73 708 1295.93 708 1296.12C708 1296.31 708 1296.5 708 1296.69C708 1296.89 708 1297.08 708 1297.27C708 1297.46 708 1297.65 708 1297.84C708 1298.04 708 1298.23 708 1298.42C708 1298.61 708 1298.8 708 1298.99C708 1299.18 708 1299.37 708 1299.56C708 1299.75 708 1299.95 708 1300.14C708 1300.33 708 1300.52 708 1300.71C708 1300.9 708 1301.09 708 1301.28C708 1301.47 708 1301.66 708 1301.85C708 1302.04 708 1302.23 708 1302.42C708 1302.61 708 1302.8 708 1302.99C708 1303.18 708 1303.37 708 1303.56C708 1303.75 708 1303.93 708 1304.12C708 1304.31 708 1304.5 708 1304.69C708 1304.88 708 1305.07 708 1305.26C708 1305.45 708 1305.63 708 1305.82C708 1306.01 708 1306.2 708 1306.39C708 1306.58 708 1306.76 708 1306.95C708 1307.14 708 1307.33 708 1307.51C708 1307.7 708 1307.89 708 1308.08C708 1308.26 708 1308.45 708 1308.64C708 1308.83 708 1309.01 708 1309.2C708 1309.39 708 1309.57 708 1309.76C708 1309.95 708 1310.13 708 1310.32C708 1310.51 708 1310.69 708 1310.88C708 1311.07 708 1311.25 708 1311.44C708 1311.62 708 1311.81 708 1311.99C708 1312.18 708 1312.36 708 1312.55C708 1312.74 708 1312.92 708 1313.11C708 1313.29 708 1313.48 708 1313.66C708 1313.85 708 1314.03 708 1314.21C708 1314.4 708 1314.58 708 1314.77C708 1314.95 708 1315.14 708 1315.32C708 1315.5 708 1315.69 708 1315.87C708 1316.05 708 1316.24 708 1316.42C708 1316.6 708 1316.79 708 1316.97C708 1317.15 708 1317.34 708 1317.52C708 1317.7 708 1317.88 708 1318.07C708 1318.25 708 1318.43 708 1318.61C708 1318.79 708 1318.98 708 1319.16C708 1319.34 708 1319.52 708 1319.7C708 1319.88 708 1320.07 708 1320.25C708 1320.43 708 1320.61 708 1320.79C708 1320.97 708 1321.15 708 1321.33C708 1321.51 708 1321.69 708 1321.87C708 1322.05 708 1322.23 708 1322.41C708 1322.59 708 1322.77 708 1322.95C708 1323.13 708 1323.31 708 1323.49C708 1323.67 708 1323.85 708 1324.03C708 1324.21 708 1324.38 708 1324.56C708 1324.74 708 1324.92 708 1325.1C708 1325.28 708 1325.45 708 1325.63C708 1325.81 708 1325.99 708 1326.16C708 1326.34 708 1326.52 708 1326.7C708 1326.87 708 1327.05 708 1327.23C708 1327.4 708 1327.58 708 1327.76C708 1327.93 708 1328.11 708 1328.29C708 1328.46 708 1328.64 708 1328.81C708 1328.99 708 1329.16 708 1329.34C708 1329.51 708 1329.69 708 1329.86C708 1330.04 708 1330.21 708 1330.39C708 1330.56 708 1330.74 708 1330.91C708 1331.09 708 1331.26 708 1331.43C708 1331.61 708 1331.78 708 1331.95C708 1332.13 708 1332.3 708 1332.47C708 1332.65 708 1332.82 708 1332.99C708 1333.16 708 1333.34 708 1333.51C708 1333.68 708 1333.85 708 1334.03C708 1334.2 708 1334.37 708 1334.54C708 1334.71 708 1334.88 708 1335.05C708 1335.22 708 1335.4 708 1335.57C708 1335.74 708 1335.91 708 1336.08C708 1336.25 708 1336.42 708 1336.59C708 1336.76 708 1336.93 708 1337.1C708 1337.27 708 1337.43 708 1337.6C708 1337.77 708 1337.94 708 1338.11C708 1338.28 708 1338.45 708 1338.61C708 1338.78 708 1338.95 708 1339.12C708 1339.29 708 1339.45 708 1339.62C708 1339.79 708 1339.96 708 1340.12C708 1340.29 708 1340.46 708 1340.62C708 1340.79 708 1340.95 708 1341.12C708 1341.29 708 1341.45 708 1341.62C708 1341.78 708 1341.95 708 1342.11C708 1342.28 708 1342.44 708 1342.61C708 1342.77 708 1342.94 708 1343.1C708 1343.27 708 1343.43 708 1343.59C708 1343.76 708 1343.92 708 1344.08C708 1344.25 708 1344.41 708 1344.57C708 1344.74 708 1344.9 708 1345.06C708 1345.22 708 1345.39 708 1345.55C708 1345.71 708 1345.87 708 1346.03C708 1346.19 708 1346.35 708 1346.52C708 1346.68 708 1346.84 708 1347C708 1347.16 708 1347.32 708 1347.48C708 1347.64 708 1347.8 708 1347.96C708 1348.12 708 1348.28 708 1348.44C708 1348.59 708 1348.75 708 1348.91C708 1349.07 708 1349.23 708 1349.39C708 1349.55 708 1349.7 708 1349.86C708 1350.02 708 1350.18 708 1350.33C708 1350.49 708 1350.65 708 1350.8C708 1350.96 708 1351.12 708 1351.27C708 1351.43 708 1351.58 708 1351.74C708 1351.9 708 1352.05 708 1352.21C708 1352.36 708 1352.52 708 1352.67C708 1352.82 708 1352.98 708 1353.13C708 1353.29 708 1353.44 708 1353.59C708 1353.75 708 1353.9 708 1354.05C708 1354.21 708 1354.36 708 1354.51C708 1354.66 708 1354.82 708 1354.97C708 1355.12 708 1355.27 708 1355.42C708 1355.58 708 1355.73 708 1355.88C708 1356.03 708 1356.18 708 1356.33C708 1356.48 708 1356.63 708 1356.78C708 1356.93 708 1357.08 708 1357.23C708 1357.38 708 1357.53 708 1357.68C708 1357.82 708 1357.97 708 1358.12C708 1358.27 708 1358.42 708 1358.56C708 1358.71 708 1358.86 708 1359.01C708 1359.15 708 1359.3 708 1359.45C708 1359.59 708 1359.74 708 1359.89C708 1360.03 708 1360.18 708 1360.32C708 1360.47 708 1360.61 708 1360.76C708 1360.9 708 1361.05 708 1361.19C708 1361.34 708 1361.48 708 1361.62C708 1361.77 708 1361.91 708 1362.05C708 1362.2 708 1362.34 708 1362.48C708 1362.63 708 1362.77 708 1362.91C708 1363.05 708 1363.19 708 1363.34C708 1363.48 708 1363.62 708 1363.76C708 1363.9 708 1364.04 708 1364.18C708 1364.32 708 1364.46 708 1364.6H710.5H713C713 1364.46 713 1364.32 713 1364.18C713 1364.04 713 1363.9 713 1363.76C713 1363.62 713 1363.48 713 1363.34C713 1363.19 713 1363.05 713 1362.91C713 1362.77 713 1362.63 713 1362.48C713 1362.34 713 1362.2 713 1362.05C713 1361.91 713 1361.77 713 1361.62C713 1361.48 713 1361.34 713 1361.19C713 1361.05 713 1360.9 713 1360.76C713 1360.61 713 1360.47 713 1360.32C713 1360.18 713 1360.03 713 1359.89C713 1359.74 713 1359.59 713 1359.45C713 1359.3 713 1359.15 713 1359.01C713 1358.86 713 1358.71 713 1358.56C713 1358.42 713 1358.27 713 1358.12C713 1357.97 713 1357.82 713 1357.68C713 1357.53 713 1357.38 713 1357.23C713 1357.08 713 1356.93 713 1356.78C713 1356.63 713 1356.48 713 1356.33C713 1356.18 713 1356.03 713 1355.88C713 1355.73 713 1355.58 713 1355.42C713 1355.27 713 1355.12 713 1354.97C713 1354.82 713 1354.66 713 1354.51C713 1354.36 713 1354.21 713 1354.05C713 1353.9 713 1353.75 713 1353.59C713 1353.44 713 1353.29 713 1353.13C713 1352.98 713 1352.82 713 1352.67C713 1352.52 713 1352.36 713 1352.21C713 1352.05 713 1351.9 713 1351.74C713 1351.58 713 1351.43 713 1351.27C713 1351.12 713 1350.96 713 1350.8C713 1350.65 713 1350.49 713 1350.33C713 1350.18 713 1350.02 713 1349.86C713 1349.7 713 1349.55 713 1349.39C713 1349.23 713 1349.07 713 1348.91C713 1348.75 713 1348.59 713 1348.44C713 1348.28 713 1348.12 713 1347.96C713 1347.8 713 1347.64 713 1347.48C713 1347.32 713 1347.16 713 1347C713 1346.84 713 1346.68 713 1346.52C713 1346.35 713 1346.19 713 1346.03C713 1345.87 713 1345.71 713 1345.55C713 1345.39 713 1345.22 713 1345.06C713 1344.9 713 1344.74 713 1344.57C713 1344.41 713 1344.25 713 1344.08C713 1343.92 713 1343.76 713 1343.59C713 1343.43 713 1343.27 713 1343.1C713 1342.94 713 1342.77 713 1342.61C713 1342.44 713 1342.28 713 1342.11C713 1341.95 713 1341.78 713 1341.62C713 1341.45 713 1341.29 713 1341.12C713 1340.95 713 1340.79 713 1340.62C713 1340.46 713 1340.29 713 1340.12C713 1339.96 713 1339.79 713 1339.62C713 1339.45 713 1339.29 713 1339.12C713 1338.95 713 1338.78 713 1338.61C713 1338.45 713 1338.28 713 1338.11C713 1337.94 713 1337.77 713 1337.6C713 1337.43 713 1337.27 713 1337.1C713 1336.93 713 1336.76 713 1336.59C713 1336.42 713 1336.25 713 1336.08C713 1335.91 713 1335.74 713 1335.57C713 1335.4 713 1335.22 713 1335.05C713 1334.88 713 1334.71 713 1334.54C713 1334.37 713 1334.2 713 1334.03C713 1333.85 713 1333.68 713 1333.51C713 1333.34 713 1333.16 713 1332.99C713 1332.82 713 1332.65 713 1332.47C713 1332.3 713 1332.13 713 1331.95C713 1331.78 713 1331.61 713 1331.43C713 1331.26 713 1331.09 713 1330.91C713 1330.74 713 1330.56 713 1330.39C713 1330.21 713 1330.04 713 1329.86C713 1329.69 713 1329.51 713 1329.34C713 1329.16 713 1328.99 713 1328.81C713 1328.64 713 1328.46 713 1328.29C713 1328.11 713 1327.93 713 1327.76C713 1327.58 713 1327.4 713 1327.23C713 1327.05 713 1326.87 713 1326.7C713 1326.52 713 1326.34 713 1326.16C713 1325.99 713 1325.81 713 1325.63C713 1325.45 713 1325.28 713 1325.1C713 1324.92 713 1324.74 713 1324.56C713 1324.38 713 1324.21 713 1324.03C713 1323.85 713 1323.67 713 1323.49C713 1323.31 713 1323.13 713 1322.95C713 1322.77 713 1322.59 713 1322.41C713 1322.23 713 1322.05 713 1321.87C713 1321.69 713 1321.51 713 1321.33C713 1321.15 713 1320.97 713 1320.79C713 1320.61 713 1320.43 713 1320.25C713 1320.07 713 1319.88 713 1319.7C713 1319.52 713 1319.34 713 1319.16C713 1318.98 713 1318.79 713 1318.61C713 1318.43 713 1318.25 713 1318.07C713 1317.88 713 1317.7 713 1317.52C713 1317.34 713 1317.15 713 1316.97C713 1316.79 713 1316.6 713 1316.42C713 1316.24 713 1316.05 713 1315.87C713 1315.69 713 1315.5 713 1315.32C713 1315.14 713 1314.95 713 1314.77C713 1314.58 713 1314.4 713 1314.21C713 1314.03 713 1313.85 713 1313.66C713 1313.48 713 1313.29 713 1313.11C713 1312.92 713 1312.74 713 1312.55C713 1312.36 713 1312.18 713 1311.99C713 1311.81 713 1311.62 713 1311.44C713 1311.25 713 1311.07 713 1310.88C713 1310.69 713 1310.51 713 1310.32C713 1310.13 713 1309.95 713 1309.76C713 1309.57 713 1309.39 713 1309.2C713 1309.01 713 1308.83 713 1308.64C713 1308.45 713 1308.26 713 1308.08C713 1307.89 713 1307.7 713 1307.51C713 1307.33 713 1307.14 713 1306.95C713 1306.76 713 1306.58 713 1306.39C713 1306.2 713 1306.01 713 1305.82C713 1305.63 713 1305.45 713 1305.26C713 1305.07 713 1304.88 713 1304.69C713 1304.5 713 1304.31 713 1304.12C713 1303.93 713 1303.75 713 1303.56C713 1303.37 713 1303.18 713 1302.99C713 1302.8 713 1302.61 713 1302.42C713 1302.23 713 1302.04 713 1301.85C713 1301.66 713 1301.47 713 1301.28C713 1301.09 713 1300.9 713 1300.71C713 1300.52 713 1300.33 713 1300.14C713 1299.95 713 1299.75 713 1299.56C713 1299.37 713 1299.18 713 1298.99C713 1298.8 713 1298.61 713 1298.42C713 1298.23 713 1298.04 713 1297.84C713 1297.65 713 1297.46 713 1297.27C713 1297.08 713 1296.89 713 1296.69C713 1296.5 713 1296.31 713 1296.12C713 1295.93 713 1295.73 713 1295.54C713 1295.35 713 1295.16 713 1294.96C713 1294.77 713 1294.58 713 1294.39C713 1294.19 713 1294 713 1293.81C713 1293.62 713 1293.42 713 1293.23C713 1293.04 713 1292.84 713 1292.65C713 1292.46 713 1292.26 713 1292.07C713 1291.88 713 1291.68 713 1291.49C713 1291.3 713 1291.1 713 1290.91C713 1290.72 713 1290.52 713 1290.33C713 1290.14 713 1289.94 713 1289.75C713 1289.55 713 1289.36 713 1289.17C713 1288.97 713 1288.78 713 1288.58C713 1288.39 713 1288.19 713 1288C713 1287.81 713 1287.61 713 1287.42C713 1287.22 713 1287.03 713 1286.83C713 1286.64 713 1286.44 713 1286.25C713 1286.05 713 1285.86 713 1285.66C713 1285.47 713 1285.27 713 1285.08C713 1284.88 713 1284.69 713 1284.49C713 1284.3 713 1284.1 713 1283.91C713 1283.71 713 1283.52 713 1283.32C713 1283.13 713 1282.93 713 1282.73C713 1282.54 713 1282.34 713 1282.15C713 1281.95 713 1281.76 713 1281.56C713 1281.36 713 1281.17 713 1280.97C713 1280.78 713 1280.58 713 1280.38C713 1280.19 713 1279.99 713 1279.8C713 1279.6 713 1279.4 713 1279.21C713 1279.01 713 1278.82 713 1278.62C713 1278.42 713 1278.23 713 1278.03C713 1277.83 713 1277.64 713 1277.44C713 1277.24 713 1277.05 713 1276.85C713 1276.65 713 1276.46 713 1276.26C713 1276.06 713 1275.87 713 1275.67C713 1275.47 713 1275.28 713 1275.08C713 1274.88 713 1274.69 713 1274.49C713 1274.29 713 1274.09 713 1273.9C713 1273.7 713 1273.5 713 1273.31C713 1273.11 713 1272.91 713 1272.71C713 1272.52 713 1272.32 713 1272.12C713 1271.93 713 1271.73 713 1271.53C713 1271.33 713 1271.14 713 1270.94C713 1270.74 713 1270.54 713 1270.35C713 1270.15 713 1269.95 713 1269.75C713 1269.56 713 1269.36 713 1269.16C713 1268.96 713 1268.77 713 1268.57C713 1268.37 713 1268.17 713 1267.98C713 1267.78 713 1267.58 713 1267.38C713 1267.18 713 1266.99 713 1266.79C713 1266.59 713 1266.39 713 1266.2C713 1266 713 1265.8 713 1265.6C713 1265.4 713 1265.21 713 1265.01C713 1264.81 713 1264.61 713 1264.42C713 1264.22 713 1264.02 713 1263.82C713 1263.62 713 1263.43 713 1263.23C713 1263.03 713 1262.83 713 1262.63C713 1262.44 713 1262.24 713 1262.04C713 1261.84 713 1261.64 713 1261.45C713 1261.25 713 1261.05 713 1260.85C713 1260.65 713 1260.46 713 1260.26C713 1260.06 713 1259.86 713 1259.66C713 1259.47 713 1259.27 713 1259.07C713 1258.87 713 1258.67 713 1258.48C713 1258.28 713 1258.08 713 1257.88C713 1257.68 713 1257.49 713 1257.29C713 1257.09 713 1256.89 713 1256.69C713 1256.5 713 1256.3 713 1256.1C713 1255.9 713 1255.71 713 1255.51C713 1255.31 713 1255.11 713 1254.91C713 1254.72 713 1254.52 713 1254.32C713 1254.12 713 1253.92 713 1253.73C713 1253.53 713 1253.33 713 1253.13C713 1252.93 713 1252.74 713 1252.54C713 1252.34 713 1252.14 713 1251.95C713 1251.75 713 1251.55 713 1251.35C713 1251.15 713 1250.96 713 1250.76C713 1250.56 713 1250.36 713 1250.17C713 1249.97 713 1249.77 713 1249.57C713 1249.38 713 1249.18 713 1248.98C713 1248.78 713 1248.59 713 1248.39C713 1248.19 713 1247.99 713 1247.8C713 1247.6 713 1247.4 713 1247.2C713 1247.01 713 1246.81 713 1246.61C713 1246.41 713 1246.22 713 1246.02C713 1245.82 713 1245.62 713 1245.43C713 1245.23 713 1245.03 713 1244.84C713 1244.64 713 1244.44 713 1244.25C713 1244.05 713 1243.85 713 1243.65C713 1243.46 713 1243.26 713 1243.06C713 1242.87 713 1242.67 713 1242.47C713 1242.28 713 1242.08 713 1241.88C713 1241.69 713 1241.49 713 1241.29C713 1241.1 713 1240.9 713 1240.7C713 1240.51 713 1240.31 713 1240.11C713 1239.92 713 1239.72 713 1239.52C713 1239.33 713 1239.13 713 1238.94C713 1238.74 713 1238.54 713 1238.35C713 1238.15 713 1237.95 713 1237.76C713 1237.56 713 1237.37 713 1237.17C713 1236.97 713 1236.78 713 1236.58C713 1236.39 713 1236.19 713 1236C713 1235.8 713 1235.6 713 1235.41C713 1235.21 713 1235.02 713 1234.82C713 1234.63 713 1234.43 713 1234.24C713 1234.04 713 1233.85 713 1233.65C713 1233.46 713 1233.26 713 1233.07C713 1232.87 713 1232.68 713 1232.48C713 1232.29 713 1232.09 713 1231.9C713 1231.7 713 1231.51 713 1231.31C713 1231.12 713 1230.92 713 1230.73C713 1230.53 713 1230.34 713 1230.14C713 1229.95 713 1229.76 713 1229.56C713 1229.37 713 1229.17 713 1228.98C713 1228.79 713 1228.59 713 1228.4C713 1228.2 713 1228.01 713 1227.82C713 1227.62 713 1227.43 713 1227.23C713 1227.04 713 1226.85 713 1226.65C713 1226.46 713 1226.27 713 1226.07C713 1225.88 713 1225.69 713 1225.49C713 1225.3 713 1225.11 713 1224.92C713 1224.72 713 1224.53 713 1224.34C713 1224.14 713 1223.95 713 1223.76C713 1223.57 713 1223.37 713 1223.18C713 1222.99 713 1222.8 713 1222.61C713 1222.41 713 1222.22 713 1222.03C713 1221.84 713 1221.65 713 1221.45C713 1221.26 713 1221.07 713 1220.88C713 1220.69 713 1220.5 713 1220.3C713 1220.11 713 1219.92 713 1219.73C713 1219.54 713 1219.35 713 1219.16C713 1218.97 713 1218.77 713 1218.58C713 1218.39 713 1218.2 713 1218.01C713 1217.82 713 1217.63 713 1217.44C713 1217.25 713 1217.06 713 1216.87C713 1216.68 713 1216.49 713 1216.3C713 1216.11 713 1215.92 713 1215.73C713 1215.54 713 1215.35 713 1215.16C713 1214.97 713 1214.78 713 1214.59C713 1214.4 713 1214.21 713 1214.03C713 1213.84 713 1213.65 713 1213.46C713 1213.27 713 1213.08 713 1212.89C713 1212.7 713 1212.52 713 1212.33C713 1212.14 713 1211.95 713 1211.76C713 1211.57 713 1211.39 713 1211.2C713 1211.01 713 1210.82 713 1210.64C713 1210.45 713 1210.26 713 1210.07C713 1209.89 713 1209.7 713 1209.51C713 1209.32 713 1209.14 713 1208.95C713 1208.76 713 1208.58 713 1208.39C713 1208.2 713 1208.02 713 1207.83C713 1207.65 713 1207.46 713 1207.27C713 1207.09 713 1206.9 713 1206.72C713 1206.53 713 1206.34 713 1206.16C713 1205.97 713 1205.79 713 1205.6C713 1205.42 713 1205.23 713 1205.05C713 1204.86 713 1204.68 713 1204.49C713 1204.31 713 1204.12 713 1203.94C713 1203.76 713 1203.57 713 1203.39C713 1203.2 713 1203.02 713 1202.84C713 1202.65 713 1202.47 713 1202.28C713 1202.1 713 1201.92 713 1201.73C713 1201.55 713 1201.37 713 1201.19C713 1201 713 1200.82 713 1200.64C713 1200.45 713 1200.27 713 1200.09C713 1199.91 713 1199.73 713 1199.54C713 1199.36 713 1199.18 713 1199C713 1198.82 713 1198.63 713 1198.45C713 1198.27 713 1198.09 713 1197.91C713 1197.73 713 1197.55 713 1197.37C713 1197.19 713 1197.01 713 1196.83C713 1196.65 713 1196.47 713 1196.29C713 1196.1 713 1195.93 713 1195.75C713 1195.57 713 1195.39 713 1195.21C713 1195.03 713 1194.85 713 1194.67C713 1194.49 713 1194.31 713 1194.13C713 1193.95 713 1193.78 713 1193.6C713 1193.42 713 1193.24 713 1193.06C713 1192.88 713 1192.71 713 1192.53C713 1192.35 713 1192.17 713 1192C713 1191.82 713 1191.64 713 1191.46C713 1191.29 713 1191.11 713 1190.93C713 1190.76 713 1190.58 713 1190.41C713 1190.23 713 1190.05 713 1189.88C713 1189.7 713 1189.53 713 1189.35C713 1189.17 713 1189 713 1188.82C713 1188.65 713 1188.47 713 1188.3C713 1188.12 713 1187.95 713 1187.77C713 1187.6 713 1187.43 713 1187.25C713 1187.08 713 1186.9 713 1186.73C713 1186.56 713 1186.38 713 1186.21C713 1186.04 713 1185.86 713 1185.69C713 1185.52 713 1185.35 713 1185.17C713 1185 713 1184.83 713 1184.66C713 1184.48 713 1184.31 713 1184.14C713 1183.97 713 1183.8 713 1183.63C713 1183.45 713 1183.28 713 1183.11C713 1182.94 713 1182.77 713 1182.6C713 1182.43 713 1182.26 713 1182.09C713 1181.92 713 1181.75 713 1181.58C713 1181.41 713 1181.24 713 1181.07C713 1180.9 713 1180.73 713 1180.56C713 1180.4 713 1180.23 713 1180.06C713 1179.89 713 1179.72 713 1179.55C713 1179.39 713 1179.22 713 1179.05C713 1178.88 713 1178.72 713 1178.55C713 1178.38 713 1178.21 713 1178.05C713 1177.88 713 1177.71 713 1177.55C713 1177.38 713 1177.22 713 1177.05C713 1176.88 713 1176.72 713 1176.55C713 1176.39 713 1176.22 713 1176.06C713 1175.89 713 1175.73 713 1175.56C713 1175.4 713 1175.24 713 1175.07C713 1174.91 713 1174.74 713 1174.58C713 1174.42 713 1174.25 713 1174.09C713 1173.93 713 1173.76 713 1173.6C713 1173.44 713 1173.28 713 1173.11C713 1172.95 713 1172.79 713 1172.63C713 1172.47 713 1172.3 713 1172.14C713 1171.98 713 1171.82 713 1171.66C713 1171.5 713 1171.34 713 1171.18C713 1171.02 713 1170.86 713 1170.7C713 1170.54 713 1170.38 713 1170.22C713 1170.06 713 1169.9 713 1169.74C713 1169.58 713 1169.42 713 1169.27C713 1169.11 713 1168.95 713 1168.79C713 1168.63 713 1168.48 713 1168.32C713 1168.16 713 1168 713 1167.85C713 1167.69 713 1167.53 713 1167.38C713 1167.22 713 1167.06 713 1166.91C713 1166.75 713 1166.6 713 1166.44C713 1166.29 713 1166.13 713 1165.98C713 1165.82 713 1165.67 713 1165.51C713 1165.36 713 1165.2 713 1165.05C713 1164.9 713 1164.74 713 1164.59C713 1164.44 713 1164.28 713 1164.13C713 1163.98 713 1163.82 713 1163.67C713 1163.52 713 1163.37 713 1163.22C713 1163.06 713 1162.91 713 1162.76C713 1162.61 713 1162.46 713 1162.31C713 1162.16 713 1162.01 713 1161.86C713 1161.71 713 1161.56 713 1161.41C713 1161.26 713 1161.11 713 1160.96C713 1160.81 713 1160.66 713 1160.51C713 1160.36 713 1160.21 713 1160.07C713 1159.92 713 1159.77 713 1159.62C713 1159.48 713 1159.33 713 1159.18C713 1159.04 713 1158.89 713 1158.74C713 1158.6 713 1158.45 713 1158.3C713 1158.16 713 1158.01 713 1157.87C713 1157.72 713 1157.58 713 1157.43C713 1157.29 713 1157.14 713 1157C713 1156.85 713 1156.71 713 1156.57C713 1156.42 713 1156.28 713 1156.14C713 1155.99 713 1155.85 713 1155.71C713 1155.57 713 1155.43 713 1155.28C713 1155.14 713 1155 713 1154.86C713 1154.72 713 1154.58 713 1154.44C713 1154.3 713 1154.16 713 1154.01C713 1153.87 713 1153.74 713 1153.6C713 1153.46 713 1153.32 713 1153.18C713 1153.04 713 1152.9 713 1152.76C713 1152.62 713 1152.49 713 1152.35C713 1152.21 713 1152.07 713 1151.94C713 1151.8 713 1151.66 713 1151.53C713 1151.39 713 1151.25 713 1151.12C713 1150.98 713 1150.85 713 1150.71C713 1150.58 713 1150.44 713 1150.31C713 1150.17 713 1150.04 713 1149.9C713 1149.77 713 1149.64 713 1149.5C713 1149.37 713 1149.24 713 1149.1C713 1148.97 713 1148.84 713 1148.71C713 1148.57 713 1148.44 713 1148.31C713 1148.18 713 1148.05 713 1147.92C713 1147.79 713 1147.66 713 1147.53C713 1147.4 713 1147.27 713 1147.14C713 1147.01 713 1146.88 713 1146.75C713 1146.62 713 1146.49 713 1146.36C713 1146.23 713 1146.11 713 1145.98C713 1145.85 713 1145.72 713 1145.6C713 1145.47 713 1145.34 713 1145.22C713 1145.09 713 1144.96 713 1144.84C713 1144.71 713 1144.59 713 1144.46C713 1144.34 713 1144.21 713 1144.09C713 1143.96 713 1143.84 713 1143.72C713 1143.59 713 1143.47 713 1143.35C713 1143.22 713 1143.1 713 1142.98C713 1142.86 713 1142.73 713 1142.61C713 1142.49 713 1142.37 713 1142.25C713 1142.13 713 1142.01 713 1141.89C713 1141.77 713 1141.65 713 1141.53C713 1141.41 713 1141.29 713 1141.17C713 1141.05 713 1140.93 713 1140.81C713 1140.69 713 1140.58 713 1140.46C713 1140.34 713 1140.22 713 1140.11C713 1139.99 713 1139.87 713 1139.76C713 1139.64 713 1139.53 713 1139.41C713 1139.3 713 1139.18 713 1139.07C713 1138.95 713 1138.84 713 1138.72C713 1138.61 713 1138.49 713 1138.38C713 1138.27 713 1138.16 713 1138.04C713 1137.93 713 1137.82 713 1137.71C713 1137.59 713 1137.48 713 1137.37C713 1137.26 713 1137.15 713 1137.04C713 1136.93 713 1136.82 713 1136.71C713 1136.6 713 1136.49 713 1136.38C713 1136.27 713 1136.16 713 1136.05C713 1135.95 713 1135.84 713 1135.73C713 1135.62 713 1135.52 713 1135.41C713 1135.3 713 1135.2 713 1135.09C713 1134.98 713 1134.88 713 1134.77C713 1134.67 713 1134.56 713 1134.46C713 1134.35 713 1134.25 713 1134.15C713 1134.04 713 1133.94 713 1133.84C713 1133.73 713 1133.63 713 1133.53C713 1133.43 713 1133.32 713 1133.22C713 1133.12 713 1133.02 713 1132.92C713 1132.82 713 1132.72 713 1132.62C713 1132.52 713 1132.42 713 1132.32C713 1132.22 713 1132.12 713 1132.02C713 1131.93 713 1131.83 713 1131.73C713 1131.63 713 1131.53 713 1131.44C713 1131.34 713 1131.24 713 1131.15C713 1131.05 713 1130.96 713 1130.86C713 1130.77 713 1130.67 713 1130.58C713 1130.48 713 1130.39 713 1130.29C713 1130.2 713 1130.11 713 1130.01C713 1129.92 713 1129.83 713 1129.74C713 1129.64 713 1129.55 713 1129.46C713 1129.37 713 1129.28 713 1129.19C713 1129.1 713 1129.01 713 1128.92C713 1128.83 713 1128.74 713 1128.65C713 1128.56 713 1128.47 713 1128.38C713 1128.3 713 1128.21 713 1128.12C713 1128.03 713 1127.95 713 1127.86C713 1127.77 713 1127.69 713 1127.6C713 1127.52 713 1127.43 713 1127.35C713 1127.26 713 1127.18 713 1127.09C713 1127.01 713 1126.93 713 1126.84C713 1126.76 713 1126.68 713 1126.59C713 1126.51 713 1126.43 713 1126.35C713 1126.27 713 1126.19 713 1126.11C713 1126.03 713 1125.95 713 1125.87C713 1125.79 713 1125.71 713 1125.63C713 1125.55 713 1125.47 713 1125.39C713 1125.31 713 1125.24 713 1125.16C713 1125.08 713 1125 713 1124.93C713 1124.85 713 1124.78 713 1124.7C713 1124.62 713 1124.55 713 1124.47C713 1124.4 713 1124.33 713 1124.25C713 1124.18 713 1124.1 713 1124.03C713 1123.96 713 1123.89 713 1123.81C713 1123.74 713 1123.67 713 1123.6C713 1123.53 713 1123.46 713 1123.39C713 1123.32 713 1123.25 713 1123.18C713 1123.11 713 1123.04 713 1122.97C713 1122.9 713 1122.83 713 1122.77C713 1122.7 713 1122.63 713 1122.56C713 1122.5 713 1122.43 713 1122.36C713 1122.3 713 1122.23 713 1122.17C713 1122.1 713 1122.04 713 1121.97C713 1121.91 713 1121.85 713 1121.78C713 1121.72 713 1121.66 713 1121.59C713 1121.53 713 1121.47 713 1121.41C713 1121.35 713 1121.29 713 1121.23C713 1121.17 713 1121.11 713 1121.05C713 1120.99 713 1120.93 713 1120.87C713 1120.81 713 1120.75 713 1120.69C713 1120.64 713 1120.58 713 1120.52C713 1120.47 713 1120.41 713 1120.35C713 1120.3 713 1120.24 713 1120.19C713 1120.13 713 1120.08 713 1120.02C713 1119.97 713 1119.92 713 1119.86C713 1119.81 713 1119.76 713 1119.7C713 1119.65 713 1119.6 713 1119.55C713 1119.5 713 1119.45 713 1119.4C713 1119.35 713 1119.3 713 1119.25C713 1119.2 713 1119.15 713 1119.1H710.5ZM710.5 1119.1H708C708 1119.64 708.148 1120.1 708.254 1120.38C708.373 1120.69 708.524 1120.99 708.678 1121.26C708.987 1121.81 709.406 1122.43 709.895 1123.1C710.879 1124.43 712.294 1126.15 714.065 1128.18C717.617 1132.25 722.736 1137.75 729.041 1144.31C741.658 1157.45 759.114 1174.96 778.493 1194.1C817.256 1232.38 863.767 1277.26 894.772 1306.91L896.5 1305.1L898.228 1303.29C867.233 1273.66 820.744 1228.8 782.007 1190.54C762.636 1171.41 745.217 1153.94 732.647 1140.85C726.358 1134.3 721.305 1128.87 717.833 1124.89C716.093 1122.9 714.783 1121.3 713.921 1120.13C713.486 1119.54 713.202 1119.11 713.037 1118.81C712.998 1118.75 712.97 1118.69 712.951 1118.65C712.931 1118.61 712.925 1118.59 712.926 1118.6C712.926 1118.6 712.941 1118.64 712.958 1118.71C712.973 1118.78 713 1118.91 713 1119.1H710.5ZM991.958 922.6V925.1H1116V922.6V920.1H991.958V922.6ZM991.958 922.6H989.458V1081.6H991.958H994.458V922.6H991.958ZM991.958 1081.6H989.458V1145.1H991.958H994.458V1081.6H991.958ZM991.958 1081.6V1084.1H1160V1081.6V1079.1H991.958V1081.6ZM710.5 983.6V986.1H882V983.6V981.1H710.5V983.6ZM882 983.6L880.232 985.368L1075.23 1180.37L1077 1178.6L1078.77 1176.83L883.768 981.832L882 983.6ZM1077 1178.6H1074.5V1364.6H1077H1079.5V1178.6H1077ZM1077 1364.6V1367.1H1309.5V1364.6V1362.1H1077V1364.6ZM1077 1364.6H1074.5V1467.1H1077H1079.5V1364.6H1077ZM710.5 760.1V757.6H493.5V760.1V762.6H710.5V760.1ZM493.5 760.1H491V1005.6H493.5H496V760.1H493.5ZM493.5 1005.6L492.341 1007.82L709.341 1121.32L710.5 1119.1L711.659 1116.88L494.659 1003.38L493.5 1005.6ZM493.5 1005.6V1003.1H346V1005.6V1008.1H493.5V1005.6ZM346 1005.6L344.232 1003.83L219.732 1128.33L221.5 1130.1L223.268 1131.87L347.768 1007.37L346 1005.6ZM221.5 1130.1H219V1291.6H221.5H224V1130.1H221.5ZM221.5 1291.6L219.732 1289.83L146.732 1362.83L148.5 1364.6L150.268 1366.37L223.268 1293.37L221.5 1291.6ZM221.5 1291.6L219.732 1293.37L297.232 1370.87L299 1369.1L300.768 1367.33L223.268 1289.83L221.5 1291.6ZM299 1369.1H296.5V1467.1H299H301.5V1369.1H299ZM299 1369.1V1371.6H385V1369.1V1366.6H299V1369.1ZM346 1005.6V1003.1H245V1005.6V1008.1H346V1005.6ZM245 1005.6L246.768 1003.83L212.268 969.332L210.5 971.1L208.732 972.868L243.232 1007.37L245 1005.6ZM221.5 1130.1L219.686 1128.38C212.026 1136.46 200.413 1148.57 190.469 1158.66C185.495 1163.7 180.954 1168.23 177.54 1171.49C175.829 1173.12 174.427 1174.41 173.407 1175.28C172.891 1175.72 172.515 1176.01 172.266 1176.19C172.139 1176.28 172.094 1176.3 172.114 1176.29C172.125 1176.29 172.192 1176.25 172.301 1176.21C172.39 1176.18 172.645 1176.1 173 1176.1V1178.6V1181.1C173.719 1181.1 174.281 1180.8 174.429 1180.72C174.685 1180.59 174.931 1180.43 175.145 1180.28C175.581 1179.97 176.094 1179.56 176.652 1179.08C177.779 1178.12 179.26 1176.76 180.991 1175.1C184.462 1171.79 189.046 1167.22 194.031 1162.17C204.004 1152.05 215.641 1139.91 223.314 1131.82L221.5 1130.1ZM173 1178.6V1176.1C172.996 1176.1 172.992 1176.1 172.988 1176.1C172.984 1176.1 172.98 1176.1 172.975 1176.1C172.971 1176.1 172.966 1176.1 172.962 1176.1C172.957 1176.1 172.952 1176.1 172.947 1176.1C172.943 1176.1 172.938 1176.1 172.932 1176.1C172.927 1176.1 172.922 1176.1 172.917 1176.1C172.911 1176.1 172.906 1176.1 172.9 1176.1C172.895 1176.1 172.889 1176.1 172.883 1176.1C172.878 1176.1 172.872 1176.1 172.866 1176.1C172.86 1176.1 172.853 1176.1 172.847 1176.1C172.841 1176.1 172.834 1176.1 172.828 1176.1C172.821 1176.1 172.815 1176.1 172.808 1176.1C172.801 1176.1 172.794 1176.1 172.788 1176.1C172.781 1176.1 172.773 1176.1 172.766 1176.1C172.759 1176.1 172.752 1176.1 172.744 1176.1C172.737 1176.1 172.729 1176.1 172.722 1176.1C172.714 1176.1 172.706 1176.1 172.698 1176.1C172.69 1176.1 172.682 1176.1 172.674 1176.1C172.666 1176.1 172.658 1176.1 172.65 1176.1C172.641 1176.1 172.633 1176.1 172.624 1176.1C172.616 1176.1 172.607 1176.1 172.598 1176.1C172.589 1176.1 172.581 1176.1 172.572 1176.1C172.563 1176.1 172.553 1176.1 172.544 1176.1C172.535 1176.1 172.526 1176.1 172.516 1176.1C172.507 1176.1 172.497 1176.1 172.487 1176.1C172.478 1176.1 172.468 1176.1 172.458 1176.1C172.448 1176.1 172.438 1176.1 172.428 1176.1C172.418 1176.1 172.408 1176.1 172.397 1176.1C172.387 1176.1 172.376 1176.1 172.366 1176.1C172.355 1176.1 172.345 1176.1 172.334 1176.1C172.323 1176.1 172.312 1176.1 172.301 1176.1C172.29 1176.1 172.279 1176.1 172.268 1176.1C172.256 1176.1 172.245 1176.1 172.234 1176.1C172.222 1176.1 172.211 1176.1 172.199 1176.1C172.187 1176.1 172.176 1176.1 172.164 1176.1C172.152 1176.1 172.14 1176.1 172.128 1176.1C172.116 1176.1 172.104 1176.1 172.091 1176.1C172.079 1176.1 172.066 1176.1 172.054 1176.1C172.041 1176.1 172.029 1176.1 172.016 1176.1C172.003 1176.1 171.991 1176.1 171.978 1176.1C171.965 1176.1 171.952 1176.1 171.938 1176.1C171.925 1176.1 171.912 1176.1 171.899 1176.1C171.885 1176.1 171.872 1176.1 171.858 1176.1C171.845 1176.1 171.831 1176.1 171.817 1176.1C171.803 1176.1 171.79 1176.1 171.776 1176.1C171.762 1176.1 171.748 1176.1 171.733 1176.1C171.719 1176.1 171.705 1176.1 171.69 1176.1C171.676 1176.1 171.661 1176.1 171.647 1176.1C171.632 1176.1 171.618 1176.1 171.603 1176.1C171.588 1176.1 171.573 1176.1 171.558 1176.1C171.543 1176.1 171.528 1176.1 171.513 1176.1C171.497 1176.1 171.482 1176.1 171.467 1176.1C171.451 1176.1 171.436 1176.1 171.42 1176.1C171.404 1176.1 171.389 1176.1 171.373 1176.1C171.357 1176.1 171.341 1176.1 171.325 1176.1C171.309 1176.1 171.293 1176.1 171.277 1176.1C171.26 1176.1 171.244 1176.1 171.228 1176.1C171.211 1176.1 171.195 1176.1 171.178 1176.1C171.161 1176.1 171.145 1176.1 171.128 1176.1C171.111 1176.1 171.094 1176.1 171.077 1176.1C171.06 1176.1 171.043 1176.1 171.026 1176.1C171.009 1176.1 170.991 1176.1 170.974 1176.1C170.956 1176.1 170.939 1176.1 170.921 1176.1C170.904 1176.1 170.886 1176.1 170.868 1176.1C170.85 1176.1 170.832 1176.1 170.814 1176.1C170.796 1176.1 170.778 1176.1 170.76 1176.1C170.742 1176.1 170.724 1176.1 170.705 1176.1C170.687 1176.1 170.668 1176.1 170.65 1176.1C170.631 1176.1 170.613 1176.1 170.594 1176.1C170.575 1176.1 170.556 1176.1 170.537 1176.1C170.518 1176.1 170.499 1176.1 170.48 1176.1C170.461 1176.1 170.442 1176.1 170.422 1176.1C170.403 1176.1 170.384 1176.1 170.364 1176.1C170.345 1176.1 170.325 1176.1 170.305 1176.1C170.285 1176.1 170.266 1176.1 170.246 1176.1C170.226 1176.1 170.206 1176.1 170.186 1176.1C170.166 1176.1 170.146 1176.1 170.125 1176.1C170.105 1176.1 170.085 1176.1 170.064 1176.1C170.044 1176.1 170.023 1176.1 170.003 1176.1C169.982 1176.1 169.961 1176.1 169.94 1176.1C169.92 1176.1 169.899 1176.1 169.878 1176.1C169.857 1176.1 169.836 1176.1 169.814 1176.1C169.793 1176.1 169.772 1176.1 169.751 1176.1C169.729 1176.1 169.708 1176.1 169.686 1176.1C169.665 1176.1 169.643 1176.1 169.621 1176.1C169.6 1176.1 169.578 1176.1 169.556 1176.1C169.534 1176.1 169.512 1176.1 169.49 1176.1C169.468 1176.1 169.446 1176.1 169.423 1176.1C169.401 1176.1 169.379 1176.1 169.356 1176.1C169.334 1176.1 169.311 1176.1 169.289 1176.1C169.266 1176.1 169.243 1176.1 169.221 1176.1C169.198 1176.1 169.175 1176.1 169.152 1176.1C169.129 1176.1 169.106 1176.1 169.083 1176.1C169.06 1176.1 169.037 1176.1 169.013 1176.1C168.99 1176.1 168.967 1176.1 168.943 1176.1C168.92 1176.1 168.896 1176.1 168.872 1176.1C168.849 1176.1 168.825 1176.1 168.801 1176.1C168.777 1176.1 168.754 1176.1 168.73 1176.1C168.706 1176.1 168.681 1176.1 168.657 1176.1C168.633 1176.1 168.609 1176.1 168.585 1176.1C168.56 1176.1 168.536 1176.1 168.511 1176.1C168.487 1176.1 168.462 1176.1 168.438 1176.1C168.413 1176.1 168.388 1176.1 168.363 1176.1C168.339 1176.1 168.314 1176.1 168.289 1176.1C168.264 1176.1 168.239 1176.1 168.213 1176.1C168.188 1176.1 168.163 1176.1 168.138 1176.1C168.112 1176.1 168.087 1176.1 168.062 1176.1C168.036 1176.1 168.01 1176.1 167.985 1176.1C167.959 1176.1 167.933 1176.1 167.908 1176.1C167.882 1176.1 167.856 1176.1 167.83 1176.1C167.804 1176.1 167.778 1176.1 167.752 1176.1C167.726 1176.1 167.699 1176.1 167.673 1176.1C167.647 1176.1 167.621 1176.1 167.594 1176.1C167.568 1176.1 167.541 1176.1 167.515 1176.1C167.488 1176.1 167.461 1176.1 167.434 1176.1C167.408 1176.1 167.381 1176.1 167.354 1176.1C167.327 1176.1 167.3 1176.1 167.273 1176.1C167.246 1176.1 167.219 1176.1 167.191 1176.1C167.164 1176.1 167.137 1176.1 167.11 1176.1C167.082 1176.1 167.055 1176.1 167.027 1176.1C167 1176.1 166.972 1176.1 166.944 1176.1C166.917 1176.1 166.889 1176.1 166.861 1176.1C166.833 1176.1 166.805 1176.1 166.777 1176.1C166.749 1176.1 166.721 1176.1 166.693 1176.1C166.665 1176.1 166.637 1176.1 166.608 1176.1C166.58 1176.1 166.552 1176.1 166.523 1176.1C166.495 1176.1 166.466 1176.1 166.438 1176.1C166.409 1176.1 166.38 1176.1 166.352 1176.1C166.323 1176.1 166.294 1176.1 166.265 1176.1C166.236 1176.1 166.207 1176.1 166.178 1176.1C166.149 1176.1 166.12 1176.1 166.091 1176.1C166.062 1176.1 166.032 1176.1 166.003 1176.1C165.974 1176.1 165.944 1176.1 165.915 1176.1C165.885 1176.1 165.856 1176.1 165.826 1176.1C165.797 1176.1 165.767 1176.1 165.737 1176.1C165.707 1176.1 165.678 1176.1 165.648 1176.1C165.618 1176.1 165.588 1176.1 165.558 1176.1C165.528 1176.1 165.498 1176.1 165.467 1176.1C165.437 1176.1 165.407 1176.1 165.377 1176.1C165.346 1176.1 165.316 1176.1 165.285 1176.1C165.255 1176.1 165.224 1176.1 165.194 1176.1C165.163 1176.1 165.132 1176.1 165.102 1176.1C165.071 1176.1 165.04 1176.1 165.009 1176.1C164.978 1176.1 164.947 1176.1 164.916 1176.1C164.885 1176.1 164.854 1176.1 164.823 1176.1C164.792 1176.1 164.761 1176.1 164.729 1176.1C164.698 1176.1 164.667 1176.1 164.635 1176.1C164.604 1176.1 164.572 1176.1 164.541 1176.1C164.509 1176.1 164.478 1176.1 164.446 1176.1C164.414 1176.1 164.383 1176.1 164.351 1176.1C164.319 1176.1 164.287 1176.1 164.255 1176.1C164.223 1176.1 164.191 1176.1 164.159 1176.1C164.127 1176.1 164.095 1176.1 164.063 1176.1C164.03 1176.1 163.998 1176.1 163.966 1176.1C163.933 1176.1 163.901 1176.1 163.868 1176.1C163.836 1176.1 163.803 1176.1 163.771 1176.1C163.738 1176.1 163.706 1176.1 163.673 1176.1C163.64 1176.1 163.607 1176.1 163.574 1176.1C163.542 1176.1 163.509 1176.1 163.476 1176.1C163.443 1176.1 163.41 1176.1 163.377 1176.1C163.343 1176.1 163.31 1176.1 163.277 1176.1C163.244 1176.1 163.211 1176.1 163.177 1176.1C163.144 1176.1 163.11 1176.1 163.077 1176.1C163.043 1176.1 163.01 1176.1 162.976 1176.1C162.943 1176.1 162.909 1176.1 162.875 1176.1C162.842 1176.1 162.808 1176.1 162.774 1176.1C162.74 1176.1 162.706 1176.1 162.672 1176.1C162.638 1176.1 162.604 1176.1 162.57 1176.1C162.536 1176.1 162.502 1176.1 162.468 1176.1C162.434 1176.1 162.399 1176.1 162.365 1176.1C162.331 1176.1 162.296 1176.1 162.262 1176.1C162.227 1176.1 162.193 1176.1 162.158 1176.1C162.124 1176.1 162.089 1176.1 162.055 1176.1C162.02 1176.1 161.985 1176.1 161.95 1176.1C161.916 1176.1 161.881 1176.1 161.846 1176.1C161.811 1176.1 161.776 1176.1 161.741 1176.1C161.706 1176.1 161.671 1176.1 161.636 1176.1C161.601 1176.1 161.566 1176.1 161.53 1176.1C161.495 1176.1 161.46 1176.1 161.424 1176.1C161.389 1176.1 161.354 1176.1 161.318 1176.1C161.283 1176.1 161.247 1176.1 161.212 1176.1C161.176 1176.1 161.14 1176.1 161.105 1176.1C161.069 1176.1 161.033 1176.1 160.998 1176.1C160.962 1176.1 160.926 1176.1 160.89 1176.1C160.854 1176.1 160.818 1176.1 160.782 1176.1C160.746 1176.1 160.71 1176.1 160.674 1176.1C160.638 1176.1 160.602 1176.1 160.566 1176.1C160.529 1176.1 160.493 1176.1 160.457 1176.1C160.421 1176.1 160.384 1176.1 160.348 1176.1C160.311 1176.1 160.275 1176.1 160.238 1176.1C160.202 1176.1 160.165 1176.1 160.129 1176.1C160.092 1176.1 160.055 1176.1 160.019 1176.1C159.982 1176.1 159.945 1176.1 159.908 1176.1C159.871 1176.1 159.835 1176.1 159.798 1176.1C159.761 1176.1 159.724 1176.1 159.687 1176.1C159.65 1176.1 159.613 1176.1 159.575 1176.1C159.538 1176.1 159.501 1176.1 159.464 1176.1C159.427 1176.1 159.389 1176.1 159.352 1176.1C159.315 1176.1 159.277 1176.1 159.24 1176.1C159.202 1176.1 159.165 1176.1 159.128 1176.1C159.09 1176.1 159.052 1176.1 159.015 1176.1C158.977 1176.1 158.94 1176.1 158.902 1176.1C158.864 1176.1 158.826 1176.1 158.789 1176.1C158.751 1176.1 158.713 1176.1 158.675 1176.1C158.637 1176.1 158.599 1176.1 158.561 1176.1C158.523 1176.1 158.485 1176.1 158.447 1176.1C158.409 1176.1 158.371 1176.1 158.333 1176.1C158.295 1176.1 158.256 1176.1 158.218 1176.1C158.18 1176.1 158.142 1176.1 158.103 1176.1C158.065 1176.1 158.026 1176.1 157.988 1176.1C157.95 1176.1 157.911 1176.1 157.873 1176.1C157.834 1176.1 157.795 1176.1 157.757 1176.1C157.718 1176.1 157.68 1176.1 157.641 1176.1C157.602 1176.1 157.563 1176.1 157.525 1176.1C157.486 1176.1 157.447 1176.1 157.408 1176.1C157.369 1176.1 157.33 1176.1 157.291 1176.1C157.252 1176.1 157.213 1176.1 157.174 1176.1C157.135 1176.1 157.096 1176.1 157.057 1176.1C157.018 1176.1 156.979 1176.1 156.94 1176.1C156.9 1176.1 156.861 1176.1 156.822 1176.1C156.783 1176.1 156.743 1176.1 156.704 1176.1C156.665 1176.1 156.625 1176.1 156.586 1176.1C156.546 1176.1 156.507 1176.1 156.467 1176.1C156.428 1176.1 156.388 1176.1 156.349 1176.1C156.309 1176.1 156.269 1176.1 156.23 1176.1C156.19 1176.1 156.15 1176.1 156.11 1176.1C156.071 1176.1 156.031 1176.1 155.991 1176.1C155.951 1176.1 155.911 1176.1 155.871 1176.1C155.831 1176.1 155.791 1176.1 155.751 1176.1C155.712 1176.1 155.671 1176.1 155.631 1176.1C155.591 1176.1 155.551 1176.1 155.511 1176.1C155.471 1176.1 155.431 1176.1 155.391 1176.1C155.35 1176.1 155.31 1176.1 155.27 1176.1C155.23 1176.1 155.189 1176.1 155.149 1176.1C155.109 1176.1 155.068 1176.1 155.028 1176.1C154.987 1176.1 154.947 1176.1 154.906 1176.1C154.866 1176.1 154.825 1176.1 154.785 1176.1C154.744 1176.1 154.704 1176.1 154.663 1176.1C154.622 1176.1 154.582 1176.1 154.541 1176.1C154.5 1176.1 154.459 1176.1 154.419 1176.1C154.378 1176.1 154.337 1176.1 154.296 1176.1C154.255 1176.1 154.215 1176.1 154.174 1176.1C154.133 1176.1 154.092 1176.1 154.051 1176.1C154.01 1176.1 153.969 1176.1 153.928 1176.1C153.887 1176.1 153.846 1176.1 153.805 1176.1C153.764 1176.1 153.722 1176.1 153.681 1176.1C153.64 1176.1 153.599 1176.1 153.558 1176.1C153.516 1176.1 153.475 1176.1 153.434 1176.1C153.393 1176.1 153.351 1176.1 153.31 1176.1C153.269 1176.1 153.227 1176.1 153.186 1176.1C153.145 1176.1 153.103 1176.1 153.062 1176.1C153.02 1176.1 152.979 1176.1 152.937 1176.1C152.896 1176.1 152.854 1176.1 152.812 1176.1C152.771 1176.1 152.729 1176.1 152.688 1176.1C152.646 1176.1 152.604 1176.1 152.563 1176.1C152.521 1176.1 152.479 1176.1 152.438 1176.1C152.396 1176.1 152.354 1176.1 152.312 1176.1C152.27 1176.1 152.229 1176.1 152.187 1176.1C152.145 1176.1 152.103 1176.1 152.061 1176.1C152.019 1176.1 151.977 1176.1 151.935 1176.1C151.893 1176.1 151.851 1176.1 151.809 1176.1C151.767 1176.1 151.725 1176.1 151.683 1176.1C151.641 1176.1 151.599 1176.1 151.557 1176.1C151.515 1176.1 151.473 1176.1 151.43 1176.1C151.388 1176.1 151.346 1176.1 151.304 1176.1C151.262 1176.1 151.219 1176.1 151.177 1176.1C151.135 1176.1 151.093 1176.1 151.05 1176.1C151.008 1176.1 150.966 1176.1 150.923 1176.1C150.881 1176.1 150.839 1176.1 150.796 1176.1C150.754 1176.1 150.711 1176.1 150.669 1176.1C150.626 1176.1 150.584 1176.1 150.541 1176.1C150.499 1176.1 150.456 1176.1 150.414 1176.1C150.371 1176.1 150.329 1176.1 150.286 1176.1C150.244 1176.1 150.201 1176.1 150.158 1176.1C150.116 1176.1 150.073 1176.1 150.03 1176.1C149.988 1176.1 149.945 1176.1 149.902 1176.1C149.86 1176.1 149.817 1176.1 149.774 1176.1C149.731 1176.1 149.689 1176.1 149.646 1176.1C149.603 1176.1 149.56 1176.1 149.517 1176.1C149.475 1176.1 149.432 1176.1 149.389 1176.1C149.346 1176.1 149.303 1176.1 149.26 1176.1C149.217 1176.1 149.174 1176.1 149.131 1176.1C149.088 1176.1 149.046 1176.1 149.003 1176.1C148.96 1176.1 148.917 1176.1 148.874 1176.1C148.831 1176.1 148.788 1176.1 148.744 1176.1C148.701 1176.1 148.658 1176.1 148.615 1176.1C148.572 1176.1 148.529 1176.1 148.486 1176.1C148.443 1176.1 148.4 1176.1 148.357 1176.1C148.313 1176.1 148.27 1176.1 148.227 1176.1C148.184 1176.1 148.141 1176.1 148.097 1176.1C148.054 1176.1 148.011 1176.1 147.968 1176.1C147.925 1176.1 147.881 1176.1 147.838 1176.1C147.795 1176.1 147.751 1176.1 147.708 1176.1C147.665 1176.1 147.622 1176.1 147.578 1176.1C147.535 1176.1 147.492 1176.1 147.448 1176.1C147.405 1176.1 147.361 1176.1 147.318 1176.1C147.275 1176.1 147.231 1176.1 147.188 1176.1C147.145 1176.1 147.101 1176.1 147.058 1176.1C147.014 1176.1 146.971 1176.1 146.927 1176.1C146.884 1176.1 146.84 1176.1 146.797 1176.1C146.753 1176.1 146.71 1176.1 146.666 1176.1C146.623 1176.1 146.579 1176.1 146.536 1176.1C146.492 1176.1 146.449 1176.1 146.405 1176.1C146.362 1176.1 146.318 1176.1 146.275 1176.1C146.231 1176.1 146.187 1176.1 146.144 1176.1C146.1 1176.1 146.057 1176.1 146.013 1176.1C145.969 1176.1 145.926 1176.1 145.882 1176.1C145.839 1176.1 145.795 1176.1 145.751 1176.1C145.708 1176.1 145.664 1176.1 145.62 1176.1C145.577 1176.1 145.533 1176.1 145.489 1176.1C145.446 1176.1 145.402 1176.1 145.358 1176.1C145.315 1176.1 145.271 1176.1 145.227 1176.1C145.183 1176.1 145.14 1176.1 145.096 1176.1C145.052 1176.1 145.008 1176.1 144.965 1176.1C144.921 1176.1 144.877 1176.1 144.833 1176.1C144.79 1176.1 144.746 1176.1 144.702 1176.1C144.658 1176.1 144.615 1176.1 144.571 1176.1C144.527 1176.1 144.483 1176.1 144.44 1176.1C144.396 1176.1 144.352 1176.1 144.308 1176.1C144.264 1176.1 144.221 1176.1 144.177 1176.1C144.133 1176.1 144.089 1176.1 144.045 1176.1C144.002 1176.1 143.958 1176.1 143.914 1176.1C143.87 1176.1 143.826 1176.1 143.782 1176.1C143.739 1176.1 143.695 1176.1 143.651 1176.1C143.607 1176.1 143.563 1176.1 143.519 1176.1C143.475 1176.1 143.432 1176.1 143.388 1176.1C143.344 1176.1 143.3 1176.1 143.256 1176.1C143.212 1176.1 143.169 1176.1 143.125 1176.1C143.081 1176.1 143.037 1176.1 142.993 1176.1C142.949 1176.1 142.905 1176.1 142.862 1176.1C142.818 1176.1 142.774 1176.1 142.73 1176.1C142.686 1176.1 142.642 1176.1 142.598 1176.1C142.554 1176.1 142.511 1176.1 142.467 1176.1C142.423 1176.1 142.379 1176.1 142.335 1176.1C142.291 1176.1 142.247 1176.1 142.204 1176.1C142.16 1176.1 142.116 1176.1 142.072 1176.1C142.028 1176.1 141.984 1176.1 141.94 1176.1C141.897 1176.1 141.853 1176.1 141.809 1176.1C141.765 1176.1 141.721 1176.1 141.677 1176.1C141.633 1176.1 141.59 1176.1 141.546 1176.1C141.502 1176.1 141.458 1176.1 141.414 1176.1C141.37 1176.1 141.327 1176.1 141.283 1176.1C141.239 1176.1 141.195 1176.1 141.151 1176.1C141.107 1176.1 141.064 1176.1 141.02 1176.1C140.976 1176.1 140.932 1176.1 140.888 1176.1C140.844 1176.1 140.801 1176.1 140.757 1176.1C140.713 1176.1 140.669 1176.1 140.626 1176.1C140.582 1176.1 140.538 1176.1 140.494 1176.1C140.45 1176.1 140.407 1176.1 140.363 1176.1C140.319 1176.1 140.275 1176.1 140.232 1176.1C140.188 1176.1 140.144 1176.1 140.1 1176.1C140.057 1176.1 140.013 1176.1 139.969 1176.1C139.925 1176.1 139.882 1176.1 139.838 1176.1C139.794 1176.1 139.751 1176.1 139.707 1176.1C139.663 1176.1 139.619 1176.1 139.576 1176.1C139.532 1176.1 139.488 1176.1 139.445 1176.1C139.401 1176.1 139.357 1176.1 139.314 1176.1C139.27 1176.1 139.226 1176.1 139.183 1176.1C139.139 1176.1 139.096 1176.1 139.052 1176.1C139.008 1176.1 138.965 1176.1 138.921 1176.1C138.878 1176.1 138.834 1176.1 138.79 1176.1C138.747 1176.1 138.703 1176.1 138.66 1176.1C138.616 1176.1 138.573 1176.1 138.529 1176.1C138.486 1176.1 138.442 1176.1 138.399 1176.1C138.355 1176.1 138.312 1176.1 138.268 1176.1C138.225 1176.1 138.181 1176.1 138.138 1176.1C138.094 1176.1 138.051 1176.1 138.007 1176.1C137.964 1176.1 137.92 1176.1 137.877 1176.1C137.834 1176.1 137.79 1176.1 137.747 1176.1C137.703 1176.1 137.66 1176.1 137.617 1176.1C137.573 1176.1 137.53 1176.1 137.487 1176.1C137.443 1176.1 137.4 1176.1 137.357 1176.1C137.313 1176.1 137.27 1176.1 137.227 1176.1C137.184 1176.1 137.14 1176.1 137.097 1176.1C137.054 1176.1 137.011 1176.1 136.967 1176.1C136.924 1176.1 136.881 1176.1 136.838 1176.1C136.795 1176.1 136.752 1176.1 136.708 1176.1C136.665 1176.1 136.622 1176.1 136.579 1176.1C136.536 1176.1 136.493 1176.1 136.45 1176.1C136.407 1176.1 136.363 1176.1 136.32 1176.1C136.277 1176.1 136.234 1176.1 136.191 1176.1C136.148 1176.1 136.105 1176.1 136.062 1176.1C136.019 1176.1 135.976 1176.1 135.933 1176.1C135.891 1176.1 135.848 1176.1 135.805 1176.1C135.762 1176.1 135.719 1176.1 135.676 1176.1C135.633 1176.1 135.59 1176.1 135.547 1176.1C135.505 1176.1 135.462 1176.1 135.419 1176.1C135.376 1176.1 135.333 1176.1 135.291 1176.1C135.248 1176.1 135.205 1176.1 135.163 1176.1C135.12 1176.1 135.077 1176.1 135.034 1176.1C134.992 1176.1 134.949 1176.1 134.906 1176.1C134.864 1176.1 134.821 1176.1 134.779 1176.1C134.736 1176.1 134.694 1176.1 134.651 1176.1C134.608 1176.1 134.566 1176.1 134.523 1176.1C134.481 1176.1 134.438 1176.1 134.396 1176.1C134.354 1176.1 134.311 1176.1 134.269 1176.1C134.226 1176.1 134.184 1176.1 134.142 1176.1C134.099 1176.1 134.057 1176.1 134.014 1176.1C133.972 1176.1 133.93 1176.1 133.888 1176.1C133.845 1176.1 133.803 1176.1 133.761 1176.1C133.719 1176.1 133.676 1176.1 133.634 1176.1C133.592 1176.1 133.55 1176.1 133.508 1176.1C133.466 1176.1 133.424 1176.1 133.382 1176.1C133.339 1176.1 133.297 1176.1 133.255 1176.1C133.213 1176.1 133.171 1176.1 133.129 1176.1C133.087 1176.1 133.046 1176.1 133.004 1176.1C132.962 1176.1 132.92 1176.1 132.878 1176.1C132.836 1176.1 132.794 1176.1 132.752 1176.1C132.711 1176.1 132.669 1176.1 132.627 1176.1C132.585 1176.1 132.544 1176.1 132.502 1176.1C132.46 1176.1 132.419 1176.1 132.377 1176.1C132.335 1176.1 132.294 1176.1 132.252 1176.1C132.211 1176.1 132.169 1176.1 132.127 1176.1C132.086 1176.1 132.044 1176.1 132.003 1176.1C131.961 1176.1 131.92 1176.1 131.879 1176.1C131.837 1176.1 131.796 1176.1 131.755 1176.1C131.713 1176.1 131.672 1176.1 131.631 1176.1C131.589 1176.1 131.548 1176.1 131.507 1176.1C131.466 1176.1 131.424 1176.1 131.383 1176.1C131.342 1176.1 131.301 1176.1 131.26 1176.1C131.219 1176.1 131.178 1176.1 131.137 1176.1C131.096 1176.1 131.055 1176.1 131.014 1176.1C130.973 1176.1 130.932 1176.1 130.891 1176.1C130.85 1176.1 130.809 1176.1 130.768 1176.1C130.727 1176.1 130.687 1176.1 130.646 1176.1C130.605 1176.1 130.564 1176.1 130.523 1176.1C130.483 1176.1 130.442 1176.1 130.401 1176.1C130.361 1176.1 130.32 1176.1 130.28 1176.1C130.239 1176.1 130.199 1176.1 130.158 1176.1C130.118 1176.1 130.077 1176.1 130.037 1176.1C129.996 1176.1 129.956 1176.1 129.915 1176.1C129.875 1176.1 129.835 1176.1 129.794 1176.1C129.754 1176.1 129.714 1176.1 129.674 1176.1C129.633 1176.1 129.593 1176.1 129.553 1176.1C129.513 1176.1 129.473 1176.1 129.433 1176.1C129.393 1176.1 129.353 1176.1 129.313 1176.1C129.273 1176.1 129.233 1176.1 129.193 1176.1C129.153 1176.1 129.113 1176.1 129.073 1176.1C129.033 1176.1 128.994 1176.1 128.954 1176.1C128.914 1176.1 128.874 1176.1 128.835 1176.1C128.795 1176.1 128.755 1176.1 128.716 1176.1C128.676 1176.1 128.636 1176.1 128.597 1176.1C128.557 1176.1 128.518 1176.1 128.478 1176.1C128.439 1176.1 128.4 1176.1 128.36 1176.1C128.321 1176.1 128.281 1176.1 128.242 1176.1C128.203 1176.1 128.164 1176.1 128.124 1176.1C128.085 1176.1 128.046 1176.1 128.007 1176.1C127.968 1176.1 127.929 1176.1 127.89 1176.1C127.851 1176.1 127.812 1176.1 127.773 1176.1C127.734 1176.1 127.695 1176.1 127.656 1176.1C127.617 1176.1 127.578 1176.1 127.539 1176.1C127.501 1176.1 127.462 1176.1 127.423 1176.1C127.384 1176.1 127.346 1176.1 127.307 1176.1C127.268 1176.1 127.23 1176.1 127.191 1176.1C127.153 1176.1 127.114 1176.1 127.076 1176.1C127.037 1176.1 126.999 1176.1 126.961 1176.1C126.922 1176.1 126.884 1176.1 126.846 1176.1C126.808 1176.1 126.769 1176.1 126.731 1176.1C126.693 1176.1 126.655 1176.1 126.617 1176.1C126.579 1176.1 126.541 1176.1 126.503 1176.1C126.465 1176.1 126.427 1176.1 126.389 1176.1C126.351 1176.1 126.313 1176.1 126.275 1176.1C126.237 1176.1 126.2 1176.1 126.162 1176.1C126.124 1176.1 126.087 1176.1 126.049 1176.1C126.011 1176.1 125.974 1176.1 125.936 1176.1C125.899 1176.1 125.861 1176.1 125.824 1176.1C125.786 1176.1 125.749 1176.1 125.712 1176.1C125.674 1176.1 125.637 1176.1 125.6 1176.1C125.563 1176.1 125.525 1176.1 125.488 1176.1C125.451 1176.1 125.414 1176.1 125.377 1176.1C125.34 1176.1 125.303 1176.1 125.266 1176.1C125.229 1176.1 125.192 1176.1 125.155 1176.1C125.118 1176.1 125.082 1176.1 125.045 1176.1C125.008 1176.1 124.972 1176.1 124.935 1176.1C124.898 1176.1 124.862 1176.1 124.825 1176.1C124.789 1176.1 124.752 1176.1 124.716 1176.1C124.679 1176.1 124.643 1176.1 124.607 1176.1C124.57 1176.1 124.534 1176.1 124.498 1176.1C124.462 1176.1 124.425 1176.1 124.389 1176.1C124.353 1176.1 124.317 1176.1 124.281 1176.1C124.245 1176.1 124.209 1176.1 124.173 1176.1C124.137 1176.1 124.102 1176.1 124.066 1176.1C124.03 1176.1 123.994 1176.1 123.959 1176.1C123.923 1176.1 123.887 1176.1 123.852 1176.1C123.816 1176.1 123.781 1176.1 123.745 1176.1C123.71 1176.1 123.674 1176.1 123.639 1176.1C123.603 1176.1 123.568 1176.1 123.533 1176.1C123.498 1176.1 123.463 1176.1 123.427 1176.1C123.392 1176.1 123.357 1176.1 123.322 1176.1C123.287 1176.1 123.252 1176.1 123.217 1176.1C123.182 1176.1 123.148 1176.1 123.113 1176.1C123.078 1176.1 123.043 1176.1 123.009 1176.1C122.974 1176.1 122.939 1176.1 122.905 1176.1C122.87 1176.1 122.836 1176.1 122.801 1176.1C122.767 1176.1 122.732 1176.1 122.698 1176.1C122.664 1176.1 122.629 1176.1 122.595 1176.1C122.561 1176.1 122.527 1176.1 122.493 1176.1C122.459 1176.1 122.425 1176.1 122.391 1176.1C122.357 1176.1 122.323 1176.1 122.289 1176.1C122.255 1176.1 122.221 1176.1 122.188 1176.1C122.154 1176.1 122.12 1176.1 122.087 1176.1C122.053 1176.1 122.019 1176.1 121.986 1176.1C121.952 1176.1 121.919 1176.1 121.886 1176.1C121.852 1176.1 121.819 1176.1 121.786 1176.1C121.752 1176.1 121.719 1176.1 121.686 1176.1C121.653 1176.1 121.62 1176.1 121.587 1176.1C121.554 1176.1 121.521 1176.1 121.488 1176.1C121.455 1176.1 121.423 1176.1 121.39 1176.1C121.357 1176.1 121.324 1176.1 121.292 1176.1C121.259 1176.1 121.227 1176.1 121.194 1176.1C121.162 1176.1 121.129 1176.1 121.097 1176.1C121.065 1176.1 121.032 1176.1 121 1176.1V1178.6V1181.1C121.032 1181.1 121.065 1181.1 121.097 1181.1C121.129 1181.1 121.162 1181.1 121.194 1181.1C121.227 1181.1 121.259 1181.1 121.292 1181.1C121.324 1181.1 121.357 1181.1 121.39 1181.1C121.423 1181.1 121.455 1181.1 121.488 1181.1C121.521 1181.1 121.554 1181.1 121.587 1181.1C121.62 1181.1 121.653 1181.1 121.686 1181.1C121.719 1181.1 121.752 1181.1 121.786 1181.1C121.819 1181.1 121.852 1181.1 121.886 1181.1C121.919 1181.1 121.952 1181.1 121.986 1181.1C122.019 1181.1 122.053 1181.1 122.087 1181.1C122.12 1181.1 122.154 1181.1 122.188 1181.1C122.221 1181.1 122.255 1181.1 122.289 1181.1C122.323 1181.1 122.357 1181.1 122.391 1181.1C122.425 1181.1 122.459 1181.1 122.493 1181.1C122.527 1181.1 122.561 1181.1 122.595 1181.1C122.629 1181.1 122.664 1181.1 122.698 1181.1C122.732 1181.1 122.767 1181.1 122.801 1181.1C122.836 1181.1 122.87 1181.1 122.905 1181.1C122.939 1181.1 122.974 1181.1 123.009 1181.1C123.043 1181.1 123.078 1181.1 123.113 1181.1C123.148 1181.1 123.182 1181.1 123.217 1181.1C123.252 1181.1 123.287 1181.1 123.322 1181.1C123.357 1181.1 123.392 1181.1 123.427 1181.1C123.463 1181.1 123.498 1181.1 123.533 1181.1C123.568 1181.1 123.603 1181.1 123.639 1181.1C123.674 1181.1 123.71 1181.1 123.745 1181.1C123.781 1181.1 123.816 1181.1 123.852 1181.1C123.887 1181.1 123.923 1181.1 123.959 1181.1C123.994 1181.1 124.03 1181.1 124.066 1181.1C124.102 1181.1 124.137 1181.1 124.173 1181.1C124.209 1181.1 124.245 1181.1 124.281 1181.1C124.317 1181.1 124.353 1181.1 124.389 1181.1C124.425 1181.1 124.462 1181.1 124.498 1181.1C124.534 1181.1 124.57 1181.1 124.607 1181.1C124.643 1181.1 124.679 1181.1 124.716 1181.1C124.752 1181.1 124.789 1181.1 124.825 1181.1C124.862 1181.1 124.898 1181.1 124.935 1181.1C124.972 1181.1 125.008 1181.1 125.045 1181.1C125.082 1181.1 125.118 1181.1 125.155 1181.1C125.192 1181.1 125.229 1181.1 125.266 1181.1C125.303 1181.1 125.34 1181.1 125.377 1181.1C125.414 1181.1 125.451 1181.1 125.488 1181.1C125.525 1181.1 125.563 1181.1 125.6 1181.1C125.637 1181.1 125.674 1181.1 125.712 1181.1C125.749 1181.1 125.786 1181.1 125.824 1181.1C125.861 1181.1 125.899 1181.1 125.936 1181.1C125.974 1181.1 126.011 1181.1 126.049 1181.1C126.087 1181.1 126.124 1181.1 126.162 1181.1C126.2 1181.1 126.237 1181.1 126.275 1181.1C126.313 1181.1 126.351 1181.1 126.389 1181.1C126.427 1181.1 126.465 1181.1 126.503 1181.1C126.541 1181.1 126.579 1181.1 126.617 1181.1C126.655 1181.1 126.693 1181.1 126.731 1181.1C126.769 1181.1 126.808 1181.1 126.846 1181.1C126.884 1181.1 126.922 1181.1 126.961 1181.1C126.999 1181.1 127.037 1181.1 127.076 1181.1C127.114 1181.1 127.153 1181.1 127.191 1181.1C127.23 1181.1 127.268 1181.1 127.307 1181.1C127.346 1181.1 127.384 1181.1 127.423 1181.1C127.462 1181.1 127.501 1181.1 127.539 1181.1C127.578 1181.1 127.617 1181.1 127.656 1181.1C127.695 1181.1 127.734 1181.1 127.773 1181.1C127.812 1181.1 127.851 1181.1 127.89 1181.1C127.929 1181.1 127.968 1181.1 128.007 1181.1C128.046 1181.1 128.085 1181.1 128.124 1181.1C128.164 1181.1 128.203 1181.1 128.242 1181.1C128.281 1181.1 128.321 1181.1 128.36 1181.1C128.4 1181.1 128.439 1181.1 128.478 1181.1C128.518 1181.1 128.557 1181.1 128.597 1181.1C128.636 1181.1 128.676 1181.1 128.716 1181.1C128.755 1181.1 128.795 1181.1 128.835 1181.1C128.874 1181.1 128.914 1181.1 128.954 1181.1C128.994 1181.1 129.033 1181.1 129.073 1181.1C129.113 1181.1 129.153 1181.1 129.193 1181.1C129.233 1181.1 129.273 1181.1 129.313 1181.1C129.353 1181.1 129.393 1181.1 129.433 1181.1C129.473 1181.1 129.513 1181.1 129.553 1181.1C129.593 1181.1 129.633 1181.1 129.674 1181.1C129.714 1181.1 129.754 1181.1 129.794 1181.1C129.835 1181.1 129.875 1181.1 129.915 1181.1C129.956 1181.1 129.996 1181.1 130.037 1181.1C130.077 1181.1 130.118 1181.1 130.158 1181.1C130.199 1181.1 130.239 1181.1 130.28 1181.1C130.32 1181.1 130.361 1181.1 130.401 1181.1C130.442 1181.1 130.483 1181.1 130.523 1181.1C130.564 1181.1 130.605 1181.1 130.646 1181.1C130.687 1181.1 130.727 1181.1 130.768 1181.1C130.809 1181.1 130.85 1181.1 130.891 1181.1C130.932 1181.1 130.973 1181.1 131.014 1181.1C131.055 1181.1 131.096 1181.1 131.137 1181.1C131.178 1181.1 131.219 1181.1 131.26 1181.1C131.301 1181.1 131.342 1181.1 131.383 1181.1C131.424 1181.1 131.466 1181.1 131.507 1181.1C131.548 1181.1 131.589 1181.1 131.631 1181.1C131.672 1181.1 131.713 1181.1 131.755 1181.1C131.796 1181.1 131.837 1181.1 131.879 1181.1C131.92 1181.1 131.961 1181.1 132.003 1181.1C132.044 1181.1 132.086 1181.1 132.127 1181.1C132.169 1181.1 132.211 1181.1 132.252 1181.1C132.294 1181.1 132.335 1181.1 132.377 1181.1C132.419 1181.1 132.46 1181.1 132.502 1181.1C132.544 1181.1 132.585 1181.1 132.627 1181.1C132.669 1181.1 132.711 1181.1 132.752 1181.1C132.794 1181.1 132.836 1181.1 132.878 1181.1C132.92 1181.1 132.962 1181.1 133.004 1181.1C133.046 1181.1 133.087 1181.1 133.129 1181.1C133.171 1181.1 133.213 1181.1 133.255 1181.1C133.297 1181.1 133.339 1181.1 133.382 1181.1C133.424 1181.1 133.466 1181.1 133.508 1181.1C133.55 1181.1 133.592 1181.1 133.634 1181.1C133.676 1181.1 133.719 1181.1 133.761 1181.1C133.803 1181.1 133.845 1181.1 133.888 1181.1C133.93 1181.1 133.972 1181.1 134.014 1181.1C134.057 1181.1 134.099 1181.1 134.142 1181.1C134.184 1181.1 134.226 1181.1 134.269 1181.1C134.311 1181.1 134.354 1181.1 134.396 1181.1C134.438 1181.1 134.481 1181.1 134.523 1181.1C134.566 1181.1 134.608 1181.1 134.651 1181.1C134.694 1181.1 134.736 1181.1 134.779 1181.1C134.821 1181.1 134.864 1181.1 134.906 1181.1C134.949 1181.1 134.992 1181.1 135.034 1181.1C135.077 1181.1 135.12 1181.1 135.163 1181.1C135.205 1181.1 135.248 1181.1 135.291 1181.1C135.333 1181.1 135.376 1181.1 135.419 1181.1C135.462 1181.1 135.505 1181.1 135.547 1181.1C135.59 1181.1 135.633 1181.1 135.676 1181.1C135.719 1181.1 135.762 1181.1 135.805 1181.1C135.848 1181.1 135.891 1181.1 135.933 1181.1C135.976 1181.1 136.019 1181.1 136.062 1181.1C136.105 1181.1 136.148 1181.1 136.191 1181.1C136.234 1181.1 136.277 1181.1 136.32 1181.1C136.363 1181.1 136.407 1181.1 136.45 1181.1C136.493 1181.1 136.536 1181.1 136.579 1181.1C136.622 1181.1 136.665 1181.1 136.708 1181.1C136.752 1181.1 136.795 1181.1 136.838 1181.1C136.881 1181.1 136.924 1181.1 136.967 1181.1C137.011 1181.1 137.054 1181.1 137.097 1181.1C137.14 1181.1 137.184 1181.1 137.227 1181.1C137.27 1181.1 137.313 1181.1 137.357 1181.1C137.4 1181.1 137.443 1181.1 137.487 1181.1C137.53 1181.1 137.573 1181.1 137.617 1181.1C137.66 1181.1 137.703 1181.1 137.747 1181.1C137.79 1181.1 137.834 1181.1 137.877 1181.1C137.92 1181.1 137.964 1181.1 138.007 1181.1C138.051 1181.1 138.094 1181.1 138.138 1181.1C138.181 1181.1 138.225 1181.1 138.268 1181.1C138.312 1181.1 138.355 1181.1 138.399 1181.1C138.442 1181.1 138.486 1181.1 138.529 1181.1C138.573 1181.1 138.616 1181.1 138.66 1181.1C138.703 1181.1 138.747 1181.1 138.79 1181.1C138.834 1181.1 138.878 1181.1 138.921 1181.1C138.965 1181.1 139.008 1181.1 139.052 1181.1C139.096 1181.1 139.139 1181.1 139.183 1181.1C139.226 1181.1 139.27 1181.1 139.314 1181.1C139.357 1181.1 139.401 1181.1 139.445 1181.1C139.488 1181.1 139.532 1181.1 139.576 1181.1C139.619 1181.1 139.663 1181.1 139.707 1181.1C139.751 1181.1 139.794 1181.1 139.838 1181.1C139.882 1181.1 139.925 1181.1 139.969 1181.1C140.013 1181.1 140.057 1181.1 140.1 1181.1C140.144 1181.1 140.188 1181.1 140.232 1181.1C140.275 1181.1 140.319 1181.1 140.363 1181.1C140.407 1181.1 140.45 1181.1 140.494 1181.1C140.538 1181.1 140.582 1181.1 140.626 1181.1C140.669 1181.1 140.713 1181.1 140.757 1181.1C140.801 1181.1 140.844 1181.1 140.888 1181.1C140.932 1181.1 140.976 1181.1 141.02 1181.1C141.064 1181.1 141.107 1181.1 141.151 1181.1C141.195 1181.1 141.239 1181.1 141.283 1181.1C141.327 1181.1 141.37 1181.1 141.414 1181.1C141.458 1181.1 141.502 1181.1 141.546 1181.1C141.59 1181.1 141.633 1181.1 141.677 1181.1C141.721 1181.1 141.765 1181.1 141.809 1181.1C141.853 1181.1 141.897 1181.1 141.94 1181.1C141.984 1181.1 142.028 1181.1 142.072 1181.1C142.116 1181.1 142.16 1181.1 142.204 1181.1C142.247 1181.1 142.291 1181.1 142.335 1181.1C142.379 1181.1 142.423 1181.1 142.467 1181.1C142.511 1181.1 142.554 1181.1 142.598 1181.1C142.642 1181.1 142.686 1181.1 142.73 1181.1C142.774 1181.1 142.818 1181.1 142.862 1181.1C142.905 1181.1 142.949 1181.1 142.993 1181.1C143.037 1181.1 143.081 1181.1 143.125 1181.1C143.169 1181.1 143.212 1181.1 143.256 1181.1C143.3 1181.1 143.344 1181.1 143.388 1181.1C143.432 1181.1 143.475 1181.1 143.519 1181.1C143.563 1181.1 143.607 1181.1 143.651 1181.1C143.695 1181.1 143.739 1181.1 143.782 1181.1C143.826 1181.1 143.87 1181.1 143.914 1181.1C143.958 1181.1 144.002 1181.1 144.045 1181.1C144.089 1181.1 144.133 1181.1 144.177 1181.1C144.221 1181.1 144.264 1181.1 144.308 1181.1C144.352 1181.1 144.396 1181.1 144.44 1181.1C144.483 1181.1 144.527 1181.1 144.571 1181.1C144.615 1181.1 144.658 1181.1 144.702 1181.1C144.746 1181.1 144.79 1181.1 144.833 1181.1C144.877 1181.1 144.921 1181.1 144.965 1181.1C145.008 1181.1 145.052 1181.1 145.096 1181.1C145.14 1181.1 145.183 1181.1 145.227 1181.1C145.271 1181.1 145.315 1181.1 145.358 1181.1C145.402 1181.1 145.446 1181.1 145.489 1181.1C145.533 1181.1 145.577 1181.1 145.62 1181.1C145.664 1181.1 145.708 1181.1 145.751 1181.1C145.795 1181.1 145.839 1181.1 145.882 1181.1C145.926 1181.1 145.969 1181.1 146.013 1181.1C146.057 1181.1 146.1 1181.1 146.144 1181.1C146.187 1181.1 146.231 1181.1 146.275 1181.1C146.318 1181.1 146.362 1181.1 146.405 1181.1C146.449 1181.1 146.492 1181.1 146.536 1181.1C146.579 1181.1 146.623 1181.1 146.666 1181.1C146.71 1181.1 146.753 1181.1 146.797 1181.1C146.84 1181.1 146.884 1181.1 146.927 1181.1C146.971 1181.1 147.014 1181.1 147.058 1181.1C147.101 1181.1 147.145 1181.1 147.188 1181.1C147.231 1181.1 147.275 1181.1 147.318 1181.1C147.361 1181.1 147.405 1181.1 147.448 1181.1C147.492 1181.1 147.535 1181.1 147.578 1181.1C147.622 1181.1 147.665 1181.1 147.708 1181.1C147.751 1181.1 147.795 1181.1 147.838 1181.1C147.881 1181.1 147.925 1181.1 147.968 1181.1C148.011 1181.1 148.054 1181.1 148.097 1181.1C148.141 1181.1 148.184 1181.1 148.227 1181.1C148.27 1181.1 148.313 1181.1 148.357 1181.1C148.4 1181.1 148.443 1181.1 148.486 1181.1C148.529 1181.1 148.572 1181.1 148.615 1181.1C148.658 1181.1 148.701 1181.1 148.744 1181.1C148.788 1181.1 148.831 1181.1 148.874 1181.1C148.917 1181.1 148.96 1181.1 149.003 1181.1C149.046 1181.1 149.088 1181.1 149.131 1181.1C149.174 1181.1 149.217 1181.1 149.26 1181.1C149.303 1181.1 149.346 1181.1 149.389 1181.1C149.432 1181.1 149.475 1181.1 149.517 1181.1C149.56 1181.1 149.603 1181.1 149.646 1181.1C149.689 1181.1 149.731 1181.1 149.774 1181.1C149.817 1181.1 149.86 1181.1 149.902 1181.1C149.945 1181.1 149.988 1181.1 150.03 1181.1C150.073 1181.1 150.116 1181.1 150.158 1181.1C150.201 1181.1 150.244 1181.1 150.286 1181.1C150.329 1181.1 150.371 1181.1 150.414 1181.1C150.456 1181.1 150.499 1181.1 150.541 1181.1C150.584 1181.1 150.626 1181.1 150.669 1181.1C150.711 1181.1 150.754 1181.1 150.796 1181.1C150.839 1181.1 150.881 1181.1 150.923 1181.1C150.966 1181.1 151.008 1181.1 151.05 1181.1C151.093 1181.1 151.135 1181.1 151.177 1181.1C151.219 1181.1 151.262 1181.1 151.304 1181.1C151.346 1181.1 151.388 1181.1 151.43 1181.1C151.473 1181.1 151.515 1181.1 151.557 1181.1C151.599 1181.1 151.641 1181.1 151.683 1181.1C151.725 1181.1 151.767 1181.1 151.809 1181.1C151.851 1181.1 151.893 1181.1 151.935 1181.1C151.977 1181.1 152.019 1181.1 152.061 1181.1C152.103 1181.1 152.145 1181.1 152.187 1181.1C152.229 1181.1 152.27 1181.1 152.312 1181.1C152.354 1181.1 152.396 1181.1 152.438 1181.1C152.479 1181.1 152.521 1181.1 152.563 1181.1C152.604 1181.1 152.646 1181.1 152.688 1181.1C152.729 1181.1 152.771 1181.1 152.812 1181.1C152.854 1181.1 152.896 1181.1 152.937 1181.1C152.979 1181.1 153.02 1181.1 153.062 1181.1C153.103 1181.1 153.145 1181.1 153.186 1181.1C153.227 1181.1 153.269 1181.1 153.31 1181.1C153.351 1181.1 153.393 1181.1 153.434 1181.1C153.475 1181.1 153.516 1181.1 153.558 1181.1C153.599 1181.1 153.64 1181.1 153.681 1181.1C153.722 1181.1 153.764 1181.1 153.805 1181.1C153.846 1181.1 153.887 1181.1 153.928 1181.1C153.969 1181.1 154.01 1181.1 154.051 1181.1C154.092 1181.1 154.133 1181.1 154.174 1181.1C154.215 1181.1 154.255 1181.1 154.296 1181.1C154.337 1181.1 154.378 1181.1 154.419 1181.1C154.459 1181.1 154.5 1181.1 154.541 1181.1C154.582 1181.1 154.622 1181.1 154.663 1181.1C154.704 1181.1 154.744 1181.1 154.785 1181.1C154.825 1181.1 154.866 1181.1 154.906 1181.1C154.947 1181.1 154.987 1181.1 155.028 1181.1C155.068 1181.1 155.109 1181.1 155.149 1181.1C155.189 1181.1 155.23 1181.1 155.27 1181.1C155.31 1181.1 155.35 1181.1 155.391 1181.1C155.431 1181.1 155.471 1181.1 155.511 1181.1C155.551 1181.1 155.591 1181.1 155.631 1181.1C155.671 1181.1 155.712 1181.1 155.751 1181.1C155.791 1181.1 155.831 1181.1 155.871 1181.1C155.911 1181.1 155.951 1181.1 155.991 1181.1C156.031 1181.1 156.071 1181.1 156.11 1181.1C156.15 1181.1 156.19 1181.1 156.23 1181.1C156.269 1181.1 156.309 1181.1 156.349 1181.1C156.388 1181.1 156.428 1181.1 156.467 1181.1C156.507 1181.1 156.546 1181.1 156.586 1181.1C156.625 1181.1 156.665 1181.1 156.704 1181.1C156.743 1181.1 156.783 1181.1 156.822 1181.1C156.861 1181.1 156.9 1181.1 156.94 1181.1C156.979 1181.1 157.018 1181.1 157.057 1181.1C157.096 1181.1 157.135 1181.1 157.174 1181.1C157.213 1181.1 157.252 1181.1 157.291 1181.1C157.33 1181.1 157.369 1181.1 157.408 1181.1C157.447 1181.1 157.486 1181.1 157.525 1181.1C157.563 1181.1 157.602 1181.1 157.641 1181.1C157.68 1181.1 157.718 1181.1 157.757 1181.1C157.795 1181.1 157.834 1181.1 157.873 1181.1C157.911 1181.1 157.95 1181.1 157.988 1181.1C158.026 1181.1 158.065 1181.1 158.103 1181.1C158.142 1181.1 158.18 1181.1 158.218 1181.1C158.256 1181.1 158.295 1181.1 158.333 1181.1C158.371 1181.1 158.409 1181.1 158.447 1181.1C158.485 1181.1 158.523 1181.1 158.561 1181.1C158.599 1181.1 158.637 1181.1 158.675 1181.1C158.713 1181.1 158.751 1181.1 158.789 1181.1C158.826 1181.1 158.864 1181.1 158.902 1181.1C158.94 1181.1 158.977 1181.1 159.015 1181.1C159.052 1181.1 159.09 1181.1 159.128 1181.1C159.165 1181.1 159.202 1181.1 159.24 1181.1C159.277 1181.1 159.315 1181.1 159.352 1181.1C159.389 1181.1 159.427 1181.1 159.464 1181.1C159.501 1181.1 159.538 1181.1 159.575 1181.1C159.613 1181.1 159.65 1181.1 159.687 1181.1C159.724 1181.1 159.761 1181.1 159.798 1181.1C159.835 1181.1 159.871 1181.1 159.908 1181.1C159.945 1181.1 159.982 1181.1 160.019 1181.1C160.055 1181.1 160.092 1181.1 160.129 1181.1C160.165 1181.1 160.202 1181.1 160.238 1181.1C160.275 1181.1 160.311 1181.1 160.348 1181.1C160.384 1181.1 160.421 1181.1 160.457 1181.1C160.493 1181.1 160.529 1181.1 160.566 1181.1C160.602 1181.1 160.638 1181.1 160.674 1181.1C160.71 1181.1 160.746 1181.1 160.782 1181.1C160.818 1181.1 160.854 1181.1 160.89 1181.1C160.926 1181.1 160.962 1181.1 160.998 1181.1C161.033 1181.1 161.069 1181.1 161.105 1181.1C161.14 1181.1 161.176 1181.1 161.212 1181.1C161.247 1181.1 161.283 1181.1 161.318 1181.1C161.354 1181.1 161.389 1181.1 161.424 1181.1C161.46 1181.1 161.495 1181.1 161.53 1181.1C161.566 1181.1 161.601 1181.1 161.636 1181.1C161.671 1181.1 161.706 1181.1 161.741 1181.1C161.776 1181.1 161.811 1181.1 161.846 1181.1C161.881 1181.1 161.916 1181.1 161.95 1181.1C161.985 1181.1 162.02 1181.1 162.055 1181.1C162.089 1181.1 162.124 1181.1 162.158 1181.1C162.193 1181.1 162.227 1181.1 162.262 1181.1C162.296 1181.1 162.331 1181.1 162.365 1181.1C162.399 1181.1 162.434 1181.1 162.468 1181.1C162.502 1181.1 162.536 1181.1 162.57 1181.1C162.604 1181.1 162.638 1181.1 162.672 1181.1C162.706 1181.1 162.74 1181.1 162.774 1181.1C162.808 1181.1 162.842 1181.1 162.875 1181.1C162.909 1181.1 162.943 1181.1 162.976 1181.1C163.01 1181.1 163.043 1181.1 163.077 1181.1C163.11 1181.1 163.144 1181.1 163.177 1181.1C163.211 1181.1 163.244 1181.1 163.277 1181.1C163.31 1181.1 163.343 1181.1 163.377 1181.1C163.41 1181.1 163.443 1181.1 163.476 1181.1C163.509 1181.1 163.542 1181.1 163.574 1181.1C163.607 1181.1 163.64 1181.1 163.673 1181.1C163.706 1181.1 163.738 1181.1 163.771 1181.1C163.803 1181.1 163.836 1181.1 163.868 1181.1C163.901 1181.1 163.933 1181.1 163.966 1181.1C163.998 1181.1 164.03 1181.1 164.063 1181.1C164.095 1181.1 164.127 1181.1 164.159 1181.1C164.191 1181.1 164.223 1181.1 164.255 1181.1C164.287 1181.1 164.319 1181.1 164.351 1181.1C164.383 1181.1 164.414 1181.1 164.446 1181.1C164.478 1181.1 164.509 1181.1 164.541 1181.1C164.572 1181.1 164.604 1181.1 164.635 1181.1C164.667 1181.1 164.698 1181.1 164.729 1181.1C164.761 1181.1 164.792 1181.1 164.823 1181.1C164.854 1181.1 164.885 1181.1 164.916 1181.1C164.947 1181.1 164.978 1181.1 165.009 1181.1C165.04 1181.1 165.071 1181.1 165.102 1181.1C165.132 1181.1 165.163 1181.1 165.194 1181.1C165.224 1181.1 165.255 1181.1 165.285 1181.1C165.316 1181.1 165.346 1181.1 165.377 1181.1C165.407 1181.1 165.437 1181.1 165.467 1181.1C165.498 1181.1 165.528 1181.1 165.558 1181.1C165.588 1181.1 165.618 1181.1 165.648 1181.1C165.678 1181.1 165.707 1181.1 165.737 1181.1C165.767 1181.1 165.797 1181.1 165.826 1181.1C165.856 1181.1 165.885 1181.1 165.915 1181.1C165.944 1181.1 165.974 1181.1 166.003 1181.1C166.032 1181.1 166.062 1181.1 166.091 1181.1C166.12 1181.1 166.149 1181.1 166.178 1181.1C166.207 1181.1 166.236 1181.1 166.265 1181.1C166.294 1181.1 166.323 1181.1 166.352 1181.1C166.38 1181.1 166.409 1181.1 166.438 1181.1C166.466 1181.1 166.495 1181.1 166.523 1181.1C166.552 1181.1 166.58 1181.1 166.608 1181.1C166.637 1181.1 166.665 1181.1 166.693 1181.1C166.721 1181.1 166.749 1181.1 166.777 1181.1C166.805 1181.1 166.833 1181.1 166.861 1181.1C166.889 1181.1 166.917 1181.1 166.944 1181.1C166.972 1181.1 167 1181.1 167.027 1181.1C167.055 1181.1 167.082 1181.1 167.11 1181.1C167.137 1181.1 167.164 1181.1 167.191 1181.1C167.219 1181.1 167.246 1181.1 167.273 1181.1C167.3 1181.1 167.327 1181.1 167.354 1181.1C167.381 1181.1 167.408 1181.1 167.434 1181.1C167.461 1181.1 167.488 1181.1 167.515 1181.1C167.541 1181.1 167.568 1181.1 167.594 1181.1C167.621 1181.1 167.647 1181.1 167.673 1181.1C167.699 1181.1 167.726 1181.1 167.752 1181.1C167.778 1181.1 167.804 1181.1 167.83 1181.1C167.856 1181.1 167.882 1181.1 167.908 1181.1C167.933 1181.1 167.959 1181.1 167.985 1181.1C168.01 1181.1 168.036 1181.1 168.062 1181.1C168.087 1181.1 168.112 1181.1 168.138 1181.1C168.163 1181.1 168.188 1181.1 168.213 1181.1C168.239 1181.1 168.264 1181.1 168.289 1181.1C168.314 1181.1 168.339 1181.1 168.363 1181.1C168.388 1181.1 168.413 1181.1 168.438 1181.1C168.462 1181.1 168.487 1181.1 168.511 1181.1C168.536 1181.1 168.56 1181.1 168.585 1181.1C168.609 1181.1 168.633 1181.1 168.657 1181.1C168.681 1181.1 168.706 1181.1 168.73 1181.1C168.754 1181.1 168.777 1181.1 168.801 1181.1C168.825 1181.1 168.849 1181.1 168.872 1181.1C168.896 1181.1 168.92 1181.1 168.943 1181.1C168.967 1181.1 168.99 1181.1 169.013 1181.1C169.037 1181.1 169.06 1181.1 169.083 1181.1C169.106 1181.1 169.129 1181.1 169.152 1181.1C169.175 1181.1 169.198 1181.1 169.221 1181.1C169.243 1181.1 169.266 1181.1 169.289 1181.1C169.311 1181.1 169.334 1181.1 169.356 1181.1C169.379 1181.1 169.401 1181.1 169.423 1181.1C169.446 1181.1 169.468 1181.1 169.49 1181.1C169.512 1181.1 169.534 1181.1 169.556 1181.1C169.578 1181.1 169.6 1181.1 169.621 1181.1C169.643 1181.1 169.665 1181.1 169.686 1181.1C169.708 1181.1 169.729 1181.1 169.751 1181.1C169.772 1181.1 169.793 1181.1 169.814 1181.1C169.836 1181.1 169.857 1181.1 169.878 1181.1C169.899 1181.1 169.92 1181.1 169.94 1181.1C169.961 1181.1 169.982 1181.1 170.003 1181.1C170.023 1181.1 170.044 1181.1 170.064 1181.1C170.085 1181.1 170.105 1181.1 170.125 1181.1C170.146 1181.1 170.166 1181.1 170.186 1181.1C170.206 1181.1 170.226 1181.1 170.246 1181.1C170.266 1181.1 170.285 1181.1 170.305 1181.1C170.325 1181.1 170.345 1181.1 170.364 1181.1C170.384 1181.1 170.403 1181.1 170.422 1181.1C170.442 1181.1 170.461 1181.1 170.48 1181.1C170.499 1181.1 170.518 1181.1 170.537 1181.1C170.556 1181.1 170.575 1181.1 170.594 1181.1C170.613 1181.1 170.631 1181.1 170.65 1181.1C170.668 1181.1 170.687 1181.1 170.705 1181.1C170.724 1181.1 170.742 1181.1 170.76 1181.1C170.778 1181.1 170.796 1181.1 170.814 1181.1C170.832 1181.1 170.85 1181.1 170.868 1181.1C170.886 1181.1 170.904 1181.1 170.921 1181.1C170.939 1181.1 170.956 1181.1 170.974 1181.1C170.991 1181.1 171.009 1181.1 171.026 1181.1C171.043 1181.1 171.06 1181.1 171.077 1181.1C171.094 1181.1 171.111 1181.1 171.128 1181.1C171.145 1181.1 171.161 1181.1 171.178 1181.1C171.195 1181.1 171.211 1181.1 171.228 1181.1C171.244 1181.1 171.26 1181.1 171.277 1181.1C171.293 1181.1 171.309 1181.1 171.325 1181.1C171.341 1181.1 171.357 1181.1 171.373 1181.1C171.389 1181.1 171.404 1181.1 171.42 1181.1C171.436 1181.1 171.451 1181.1 171.467 1181.1C171.482 1181.1 171.497 1181.1 171.513 1181.1C171.528 1181.1 171.543 1181.1 171.558 1181.1C171.573 1181.1 171.588 1181.1 171.603 1181.1C171.618 1181.1 171.632 1181.1 171.647 1181.1C171.661 1181.1 171.676 1181.1 171.69 1181.1C171.705 1181.1 171.719 1181.1 171.733 1181.1C171.748 1181.1 171.762 1181.1 171.776 1181.1C171.79 1181.1 171.803 1181.1 171.817 1181.1C171.831 1181.1 171.845 1181.1 171.858 1181.1C171.872 1181.1 171.885 1181.1 171.899 1181.1C171.912 1181.1 171.925 1181.1 171.938 1181.1C171.952 1181.1 171.965 1181.1 171.978 1181.1C171.991 1181.1 172.003 1181.1 172.016 1181.1C172.029 1181.1 172.041 1181.1 172.054 1181.1C172.066 1181.1 172.079 1181.1 172.091 1181.1C172.104 1181.1 172.116 1181.1 172.128 1181.1C172.14 1181.1 172.152 1181.1 172.164 1181.1C172.176 1181.1 172.187 1181.1 172.199 1181.1C172.211 1181.1 172.222 1181.1 172.234 1181.1C172.245 1181.1 172.256 1181.1 172.268 1181.1C172.279 1181.1 172.29 1181.1 172.301 1181.1C172.312 1181.1 172.323 1181.1 172.334 1181.1C172.345 1181.1 172.355 1181.1 172.366 1181.1C172.376 1181.1 172.387 1181.1 172.397 1181.1C172.408 1181.1 172.418 1181.1 172.428 1181.1C172.438 1181.1 172.448 1181.1 172.458 1181.1C172.468 1181.1 172.478 1181.1 172.487 1181.1C172.497 1181.1 172.507 1181.1 172.516 1181.1C172.526 1181.1 172.535 1181.1 172.544 1181.1C172.553 1181.1 172.563 1181.1 172.572 1181.1C172.581 1181.1 172.589 1181.1 172.598 1181.1C172.607 1181.1 172.616 1181.1 172.624 1181.1C172.633 1181.1 172.641 1181.1 172.65 1181.1C172.658 1181.1 172.666 1181.1 172.674 1181.1C172.682 1181.1 172.69 1181.1 172.698 1181.1C172.706 1181.1 172.714 1181.1 172.722 1181.1C172.729 1181.1 172.737 1181.1 172.744 1181.1C172.752 1181.1 172.759 1181.1 172.766 1181.1C172.773 1181.1 172.781 1181.1 172.788 1181.1C172.794 1181.1 172.801 1181.1 172.808 1181.1C172.815 1181.1 172.821 1181.1 172.828 1181.1C172.834 1181.1 172.841 1181.1 172.847 1181.1C172.853 1181.1 172.86 1181.1 172.866 1181.1C172.872 1181.1 172.878 1181.1 172.883 1181.1C172.889 1181.1 172.895 1181.1 172.9 1181.1C172.906 1181.1 172.911 1181.1 172.917 1181.1C172.922 1181.1 172.927 1181.1 172.932 1181.1C172.938 1181.1 172.943 1181.1 172.947 1181.1C172.952 1181.1 172.957 1181.1 172.962 1181.1C172.966 1181.1 172.971 1181.1 172.975 1181.1C172.98 1181.1 172.984 1181.1 172.988 1181.1C172.992 1181.1 172.996 1181.1 173 1181.1V1178.6ZM710.5 536.6V539.1H844.5V536.6V534.1H710.5V536.6ZM991.958 684.058H989.458V1238.1H991.958H994.458V684.058H991.958ZM844.5 536.6L842.732 538.368L916.461 612.097L918.229 610.329L919.997 608.561L846.268 534.832L844.5 536.6ZM918.229 610.329L916.461 612.097L990.19 685.826L991.958 684.058L993.726 682.29L919.997 608.561L918.229 610.329ZM918.229 610.329V612.829H991.958V610.329V607.829H918.229V610.329ZM991.958 610.329L990.306 612.205L1214.85 809.976L1216.5 808.1L1218.15 806.224L993.611 608.453L991.958 610.329ZM1216.5 808.1L1214.73 809.868L1280.73 875.868L1282.5 874.1L1284.27 872.332L1218.27 806.332L1216.5 808.1ZM1282.5 874.1H1280V938.1H1282.5H1285V874.1H1282.5ZM1216.5 808.1H1214V866.6H1216.5H1219V808.1H1216.5ZM1282.5 938.1H1280V989.6H1282.5H1285V938.1H1282.5ZM1216.5 808.1V805.6H1160V808.1V810.6H1216.5V808.1ZM1160 808.1L1158.23 806.332L1126.73 837.832L1128.5 839.6L1130.27 841.368L1161.77 809.868L1160 808.1ZM1160 808.1V805.6H1092V808.1V810.6H1160V808.1ZM991.958 610.329V612.829H1319.5V610.329V607.829H991.958V610.329ZM1319.5 610.329H1322V567.6H1319.5H1317V610.329H1319.5ZM1319.5 610.329H1317V693.1H1319.5H1322V610.329H1319.5ZM1319.5 567.6V570.1H1353V567.6V565.1H1319.5V567.6ZM1319.5 693.1L1317.73 694.868L1360.73 737.868L1362.5 736.1L1364.27 734.332L1321.27 691.332L1319.5 693.1ZM710.5 760.1V762.6H851.229V760.1V757.6H710.5V760.1ZM851.229 760.1L849.339 761.737L990.068 924.237L991.958 922.6L993.848 920.963L853.119 758.463L851.229 760.1Z" fill="#ED0048"/>
</g>
<defs>
<filter id="filter0_d_2007_22" x="-56.4333" y="-2.47955e-05" width="1461.37" height="1509.53" filterUnits="userSpaceOnUse" color-interpolation-filters="sRGB">
<feFlood flood-opacity="0" result="BackgroundImageFix"/>
<feColorMatrix in="SourceAlpha" type="matrix" values="0 0 0 0 0 0 0 0 0 0 0 0 0 0 0 0 0 0 127 0" result="hardAlpha"/>
<feOffset dx="3" dy="3"/>
<feGaussianBlur stdDeviation="13.05"/>
<feColorMatrix type="matrix" values="0 0 0 0 0 0 0 0 0 0.941176 0 0 0 0 1 0 0 0 1 0"/>
<feBlend mode="normal" in2="BackgroundImageFix" result="effect1_dropShadow_2007_22"/>
<feBlend mode="normal" in="SourceGraphic" in2="effect1_dropShadow_2007_22" result="shape"/>
</filter>
</defs>
</svg>
